<?xml version="1.0" standalone="no"?><!DOCTYPE svg PUBLIC "-//W3C//DTD SVG 1.1//EN" "http://www.w3.org/Graphics/SVG/1.1/DTD/svg11.dtd"><svg t="1611646892862" class="icon" viewBox="0 0 1024 1024" version="1.1" xmlns="http://www.w3.org/2000/svg" p-id="2546" xmlns:xlink="http://www.w3.org/1999/xlink" width="128" height="128"><defs><style type="text/css"></style></defs><path d="M213.333333 213.333333v640a42.666667 42.666667 0 0 1-85.333333 0V170.666667a42.666667 42.666667 0 0 1 42.666667-42.666667h682.666666a42.666667 42.666667 0 0 1 42.666667 42.666667v512a42.666667 42.666667 0 0 1-85.333333 0V213.333333H213.333333z m85.333334 469.333334a42.666667 42.666667 0 0 1 85.333333 0v170.666666a42.666667 42.666667 0 0 1-85.333333 0v-170.666666z m170.666666 0a42.666667 42.666667 0 0 1 85.333334 0v170.666666a42.666667 42.666667 0 0 1-85.333334 0v-170.666666z m170.666667 0a42.666667 42.666667 0 0 1 85.333333 0v170.666666a42.666667 42.666667 0 0 1-85.333333 0v-170.666666zM341.333333 384a42.666667 42.666667 0 1 1 0-85.333333h341.333334a42.666667 42.666667 0 0 1 0 85.333333H341.333333z m0 170.666667a42.666667 42.666667 0 0 1 0-85.333334h170.666667a42.666667 42.666667 0 0 1 0 85.333334H341.333333z" p-id="2547" fill="#bfbfbf"></path></svg>