<?xml version="1.0" standalone="no"?><!DOCTYPE svg PUBLIC "-//W3C//DTD SVG 1.1//EN" "http://www.w3.org/Graphics/SVG/1.1/DTD/svg11.dtd"><svg t="1611646945892" class="icon" viewBox="0 0 1024 1024" version="1.1" xmlns="http://www.w3.org/2000/svg" p-id="4580" xmlns:xlink="http://www.w3.org/1999/xlink" width="128" height="128"><defs><style type="text/css"></style></defs><path d="M726.528 246.485333a42.666667 42.666667 0 0 1 53.674667-66.304A425.813333 425.813333 0 0 1 938.666667 512a425.813333 425.813333 0 0 1-158.464 331.818667 42.666667 42.666667 0 0 1-53.674667-66.304A340.522667 340.522667 0 0 0 853.333333 512a340.522667 340.522667 0 0 0-126.805333-265.514667zM297.472 777.514667a42.666667 42.666667 0 0 1-53.674667 66.304A425.813333 425.813333 0 0 1 85.333333 512a425.813333 425.813333 0 0 1 158.464-331.818667 42.666667 42.666667 0 1 1 53.674667 66.304A340.522667 340.522667 0 0 0 170.666667 512a340.522667 340.522667 0 0 0 126.805333 265.514667z m299.178667-361.514667a42.666667 42.666667 0 1 1 56.490666-64A212.906667 212.906667 0 0 1 725.333333 512a212.906667 212.906667 0 0 1-72.192 160 42.666667 42.666667 0 0 1-56.490666-64A127.573333 127.573333 0 0 0 640 512a127.573333 127.573333 0 0 0-43.349333-96z m-169.301334 192a42.666667 42.666667 0 0 1-56.490666 64A212.906667 212.906667 0 0 1 298.666667 512a212.906667 212.906667 0 0 1 72.192-160 42.666667 42.666667 0 0 1 56.490666 64A127.573333 127.573333 0 0 0 384 512a127.573333 127.573333 0 0 0 43.349333 96z" p-id="4581" fill="#bfbfbf"></path></svg>