<?xml version="1.0" standalone="no"?><!DOCTYPE svg PUBLIC "-//W3C//DTD SVG 1.1//EN" "http://www.w3.org/Graphics/SVG/1.1/DTD/svg11.dtd"><svg t="1611642846980" class="icon" viewBox="0 0 1024 1024" version="1.1" xmlns="http://www.w3.org/2000/svg" p-id="8560" xmlns:xlink="http://www.w3.org/1999/xlink" width="128" height="128"><defs><style type="text/css"></style></defs><path d="M767.146667 165.013333l-85.013334 512.213334a32.021333 32.021333 0 0 1-36.8 26.346666 32 32 0 0 1-26.346666-36.8l44.373333-267.093333c-33.28 8.853333-70.826667 13.333333-108.48 13.333333-47.253333 0-94.826667-7.146667-134.613333-21.546666-67.626667-24.746667-169.386667-23.04-232 2.346666l72.64 437.973334h240.533333c17.706667 0 32 14.4 32 32 0 17.706667-14.293333 32-32 32h-267.733333c-1.066667 0-2.133333-0.106667-3.2-0.213334-2.133333-0.213333-4.266667-0.64-6.186667-1.28-1.066667-0.32-2.026667-0.64-2.986667-1.066666-0.96-0.32-1.92-0.853333-2.773333-1.28-0.96-0.533333-1.813333-1.066667-2.666667-1.6-1.706667-1.173333-3.2-2.453333-4.693333-3.946667a35.413333 35.413333 0 0 1-1.92-2.026667c-3.093333-3.626667-5.333333-8.106667-6.506667-12.906666-0.213333-0.64-0.32-1.28-0.426666-1.92 0-0.213333-0.106667-0.426667-0.106667-0.533334L85.333333 165.013333c-2.88-17.386667 8.96-33.92 26.346667-36.8 17.493333-2.88 33.92 8.96 36.8 26.346667L177.493333 329.6c77.333333-26.666667 186.24-26.88 264.64 1.706667 68.053333 24.746667 170.453333 23.04 232.96-2.666667L704 154.56a32 32 0 0 1 36.8-26.346667 32 32 0 0 1 26.346667 36.8zM757.333333 896a32 32 0 0 1-32-32V736a32 32 0 1 1 64 0v128a32 32 0 0 1-32 32z" p-id="8561" fill="#bfbfbf"></path><path d="M661.333333 800v64c0 17.706667-14.293333 32-32 32s-32-14.293333-32-32v-64c0-1.813333 0.106667-3.626667 0.533334-5.44 0.32-2.453333 1.066667-4.8 2.026666-7.04 1.173333-2.666667 2.666667-5.226667 4.48-7.466667 1.386667-1.92 3.093333-3.626667 5.013334-5.013333 11.2-8.853333 28.586667-8.853333 39.893333 0 1.92 1.386667 3.626667 3.093333 5.013333 5.013333 1.813333 2.24 3.306667 4.8 4.48 7.466667 0.96 2.24 1.706667 4.586667 2.026667 7.04 0.426667 1.813333 0.533333 3.626667 0.533333 5.44z" p-id="8562" fill="#bfbfbf"></path><path d="M629.333333 768c7.573333 0 14.506667 2.666667 19.946667 7.04-11.306667-8.853333-28.693333-8.853333-39.893333 0 5.44-4.373333 12.373333-7.04 19.946666-7.04z" p-id="8563" fill="#bfbfbf"></path><path d="M885.333333 896a32 32 0 0 1-32-32V586.666667a32 32 0 1 1 64 0v277.333333a32 32 0 0 1-32 32z" p-id="8564" fill="#bfbfbf"></path></svg>