<?xml version="1.0" standalone="no"?><!DOCTYPE svg PUBLIC "-//W3C//DTD SVG 1.1//EN" "http://www.w3.org/Graphics/SVG/1.1/DTD/svg11.dtd"><svg t="1611646960388" class="icon" viewBox="0 0 1024 1024" version="1.1" xmlns="http://www.w3.org/2000/svg" p-id="5352" xmlns:xlink="http://www.w3.org/1999/xlink" width="128" height="128"><defs><style type="text/css"></style></defs><path d="M677.290667 341.333333a170.752 170.752 0 0 0-330.581334 0h330.581334zM401.536 153.002667A254.976 254.976 0 0 1 512 128c39.552 0 77.013333 8.96 110.506667 25.002667l22.016-44.074667a42.666667 42.666667 0 0 1 76.288 38.144l-27.904 55.808A255.189333 255.189333 0 0 1 768 384v384a42.666667 42.666667 0 0 1-42.666667 42.666667h-42.666666v85.333333a42.666667 42.666667 0 0 1-85.333334 0v-128a42.666667 42.666667 0 0 1 42.666667-42.666667h42.666667v-298.666666H341.333333v298.666666h149.333334a42.666667 42.666667 0 0 1 0 85.333334H426.666667v85.333333a42.666667 42.666667 0 0 1-85.333334 0v-85.333333H298.666667a42.666667 42.666667 0 0 1-42.666667-42.666667V384c0-70.741333 28.672-134.784 75.093333-181.12l-27.904-55.808a42.666667 42.666667 0 0 1 76.288-38.144l22.058667 44.074667zM128 384a42.666667 42.666667 0 1 1 85.333333 0v213.333333a42.666667 42.666667 0 0 1-85.333333 0V384z m682.666667 0a42.666667 42.666667 0 0 1 85.333333 0v213.333333a42.666667 42.666667 0 0 1-85.333333 0V384z" p-id="5353" fill="#bfbfbf"></path></svg>