<?xml version="1.0" standalone="no"?><!DOCTYPE svg PUBLIC "-//W3C//DTD SVG 1.1//EN" "http://www.w3.org/Graphics/SVG/1.1/DTD/svg11.dtd"><svg t="1611646927992" class="icon" viewBox="0 0 1024 1024" version="1.1" xmlns="http://www.w3.org/2000/svg" p-id="3712" xmlns:xlink="http://www.w3.org/1999/xlink" width="128" height="128"><defs><style type="text/css"></style></defs><path d="M498.261333 358.656c14.506667 5.632 11.477333 4.48 15.146667 5.802667 11.050667 4.010667 18.261333 5.674667 25.088 5.674666 5.290667 0 9.813333-0.981333 16.896-3.626666 3.413333-1.28 18.090667-7.381333 18.858667-7.68 29.141333-11.733333 55.424-17.493333 92.501333-17.493334 62.293333 0 115.584 27.221333 156.885333 79.189334a42.666667 42.666667 0 0 1-8.576 61.269333c-36.906667 26.410667-54.229333 59.690667-54.229333 103.765333 0 40.106667 21.888 78.208 61.738667 89.813334a42.666667 42.666667 0 0 1 26.837333 58.88c-28.629333 61.952-55.168 107.392-80.896 139.264-36.48 45.098667-73.429333 65.237333-115.029333 65.237333-19.968 0-35.84-4.394667-55.125334-13.098667-2.858667-1.28-6.144-2.858667-11.52-5.376-16.64-7.765333-26.282667-10.453333-42.197333-10.453333-15.445333 0-22.784 2.133333-41.002667 10.538667-28.672 13.226667-46.378667 18.346667-75.52 18.346666-55.808 0-123.861333-65.962667-167.466666-153.856A449.408 449.408 0 0 1 213.333333 585.6C213.333333 422.144 319.914667 341.333333 419.797333 341.333333c27.52 0 47.488 5.205333 78.464 17.322667zM666.794667 426.666667c-25.429333 0-41.088 3.413333-60.672 11.306666a1079.893333 1079.893333 0 0 1-20.821334 8.448c-15.957333 5.973333-30.208 9.045333-46.805333 9.045334-18.389333 0-34.688-3.669333-54.272-10.794667l-8.832-3.328-8.192-3.2c-21.845333-8.533333-33.066667-11.477333-47.402667-11.477333-14.762667 0-43.605333 8.96-66.432 26.282666-34.346667 26.026667-54.698667 67.84-54.698666 132.608 0 56.533333 13.866667 111.957333 38.4 161.365334 30.72 61.824 76.757333 106.496 91.008 106.496 14.421333 0 21.333333-2.048 38.954666-10.154667 29.312-13.525333 47.445333-18.773333 77.610667-18.773333 30.293333 0 51.328 5.888 78.293333 18.474666 5.845333 2.730667 8.448 3.968 10.666667 4.949334 9.130667 4.138667 13.994667 5.504 19.882667 5.504 13.994667 0 27.477333-7.381333 48.64-33.578667 15.658667-19.328 32.725333-46.762667 51.285333-83.2-51.328-33.408-77.909333-91.861333-77.909333-151.04 0-54.613333 17.792-101.888 52.352-139.989333A102.741333 102.741333 0 0 0 666.752 426.666667z m58.453333-296.149334c-5.717333 97.28-64.682667 156.330667-165.546667 167.893334a42.666667 42.666667 0 0 1-47.488-40.533334c-4.096-93.098667 55.296-152.576 162.901334-171.861333a42.666667 42.666667 0 0 1 50.133333 44.501333z" p-id="3713" fill="#bfbfbf"></path></svg>