<?xml version="1.0" standalone="no"?><!DOCTYPE svg PUBLIC "-//W3C//DTD SVG 1.1//EN" "http://www.w3.org/Graphics/SVG/1.1/DTD/svg11.dtd"><svg t="1611646924423" class="icon" viewBox="0 0 1024 1024" version="1.1" xmlns="http://www.w3.org/2000/svg" p-id="3519" xmlns:xlink="http://www.w3.org/1999/xlink" width="128" height="128"><defs><style type="text/css"></style></defs><path d="M170.666667 128h256a42.666667 42.666667 0 0 1 42.666666 42.666667v256a42.666667 42.666667 0 0 1-42.666666 42.666666H170.666667a42.666667 42.666667 0 0 1-42.666667-42.666666V170.666667a42.666667 42.666667 0 0 1 42.666667-42.666667z m42.666666 85.333333v170.666667h170.666667V213.333333H213.333333z m-42.666666 341.333334h256a42.666667 42.666667 0 0 1 42.666666 42.666666v256a42.666667 42.666667 0 0 1-42.666666 42.666667H170.666667a42.666667 42.666667 0 0 1-42.666667-42.666667v-256a42.666667 42.666667 0 0 1 42.666667-42.666666z m42.666666 85.333333v170.666667h170.666667v-170.666667H213.333333z m384-512h256a42.666667 42.666667 0 0 1 42.666667 42.666667v256a42.666667 42.666667 0 0 1-42.666667 42.666666h-256a42.666667 42.666667 0 0 1-42.666666-42.666666V170.666667a42.666667 42.666667 0 0 1 42.666666-42.666667z m42.666667 85.333333v170.666667h170.666667V213.333333h-170.666667z m170.666667 426.666667h-213.333334a42.666667 42.666667 0 0 1 0-85.333333h256a42.666667 42.666667 0 0 1 42.666667 42.666666v256a42.666667 42.666667 0 0 1-42.666667 42.666667h-256a42.666667 42.666667 0 0 1-42.666666-42.666667v-85.333333a42.666667 42.666667 0 0 1 85.333333 0v42.666667h170.666667v-170.666667z" p-id="3520" fill="#bfbfbf"></path></svg>