<?xml version="1.0" standalone="no"?><!DOCTYPE svg PUBLIC "-//W3C//DTD SVG 1.1//EN" "http://www.w3.org/Graphics/SVG/1.1/DTD/svg11.dtd"><svg t="1611646909759" class="icon" viewBox="0 0 1024 1024" version="1.1" xmlns="http://www.w3.org/2000/svg" p-id="2747" xmlns:xlink="http://www.w3.org/1999/xlink" width="128" height="128"><defs><style type="text/css"></style></defs><path d="M512 170.666667a42.666667 42.666667 0 0 1 0-85.333334c235.648 0 426.666667 191.018667 426.666667 426.666667s-191.018667 426.666667-426.666667 426.666667S85.333333 747.648 85.333333 512a426.538667 426.538667 0 0 1 224.426667-375.765333 42.666667 42.666667 0 0 1 40.533333 75.093333A341.333333 341.333333 0 1 0 512 170.666667z m-110.336 384l97.834667 97.834666a42.666667 42.666667 0 0 1-60.330667 60.330667l-170.666667-170.666667C241.621333 515.285333 260.650667 469.333333 298.666667 469.333333h426.666666a42.666667 42.666667 0 0 1 0 85.333334H401.664z m43.989333-248.832a42.666667 42.666667 0 0 1 47.36 70.997333l-64 42.666667a42.666667 42.666667 0 1 1-47.36-70.997334l64-42.666666z" p-id="2748" fill="#bfbfbf"></path></svg>