<?xml version="1.0" standalone="no"?><!DOCTYPE svg PUBLIC "-//W3C//DTD SVG 1.1//EN" "http://www.w3.org/Graphics/SVG/1.1/DTD/svg11.dtd"><svg t="1611646956814" class="icon" viewBox="0 0 1024 1024" version="1.1" xmlns="http://www.w3.org/2000/svg" p-id="5159" xmlns:xlink="http://www.w3.org/1999/xlink" width="128" height="128"><defs><style type="text/css"></style></defs><path d="M512 170.666667a42.666667 42.666667 0 0 1 0-85.333334c235.648 0 426.666667 191.018667 426.666667 426.666667s-191.018667 426.666667-426.666667 426.666667S85.333333 747.648 85.333333 512a426.538667 426.538667 0 0 1 224.426667-375.765333 42.666667 42.666667 0 0 1 40.533333 75.093333A341.333333 341.333333 0 1 0 512 170.666667z m110.336 298.666666l-97.834667-97.834666a42.666667 42.666667 0 1 1 60.330667-60.330667l170.666667 170.666667c26.88 26.88 7.850667 72.832-30.165334 72.832H298.666667a42.666667 42.666667 0 0 1 0-85.333334h323.669333z m-27.306667 135.168a42.666667 42.666667 0 1 1 47.317334 70.997334l-64 42.666666a42.666667 42.666667 0 1 1-47.36-70.997333l64-42.666667z" p-id="5160" fill="#bfbfbf"></path></svg>