<?xml version="1.0" standalone="no"?><!DOCTYPE svg PUBLIC "-//W3C//DTD SVG 1.1//EN" "http://www.w3.org/Graphics/SVG/1.1/DTD/svg11.dtd"><svg t="1611646977234" class="icon" viewBox="0 0 1024 1024" version="1.1" xmlns="http://www.w3.org/2000/svg" p-id="6317" xmlns:xlink="http://www.w3.org/1999/xlink" width="128" height="128"><defs><style type="text/css"></style></defs><path d="M512 170.666667a42.666667 42.666667 0 0 1 0-85.333334c235.648 0 426.666667 191.018667 426.666667 426.666667s-191.018667 426.666667-426.666667 426.666667S85.333333 747.648 85.333333 512a426.538667 426.538667 0 0 1 224.426667-375.765333 42.666667 42.666667 0 0 1 40.533333 75.093333A341.333333 341.333333 0 1 0 512 170.666667z m140.501333 353.834666a42.666667 42.666667 0 0 1 60.330667 60.330667l-170.666667 170.666667c-26.88 26.88-72.832 7.850667-72.832-30.165334V298.666667a42.666667 42.666667 0 0 1 85.333334 0v323.669333l97.834666-97.834667z m-346.666666 53.845334a42.666667 42.666667 0 0 1 70.997333-47.36l42.666667 64a42.666667 42.666667 0 1 1-70.997334 47.36l-42.666666-64z" p-id="6318" fill="#bfbfbf"></path></svg>