<?xml version="1.0" standalone="no"?><!DOCTYPE svg PUBLIC "-//W3C//DTD SVG 1.1//EN" "http://www.w3.org/Graphics/SVG/1.1/DTD/svg11.dtd"><svg t="1611646935487" class="icon" viewBox="0 0 1024 1024" version="1.1" xmlns="http://www.w3.org/2000/svg" p-id="4098" xmlns:xlink="http://www.w3.org/1999/xlink" width="128" height="128"><defs><style type="text/css"></style></defs><path d="M200.96 810.666667H682.666667a42.666667 42.666667 0 0 1 0 85.333333H128a42.666667 42.666667 0 0 1-37.205333-63.573333l384-682.666667a42.666667 42.666667 0 0 1 74.410666 0l384 682.666667a42.666667 42.666667 0 1 1-74.410666 41.813333L512 257.706667 200.96 810.666667zM469.333333 469.333333a42.666667 42.666667 0 0 1 85.333334 0v128a42.666667 42.666667 0 0 1-85.333334 0v-128z m42.666667 298.666667a42.666667 42.666667 0 1 1 0-85.333333 42.666667 42.666667 0 0 1 0 85.333333z" p-id="4099" fill="#bfbfbf"></path></svg>