<?xml version="1.0" standalone="no"?><!DOCTYPE svg PUBLIC "-//W3C//DTD SVG 1.1//EN" "http://www.w3.org/Graphics/SVG/1.1/DTD/svg11.dtd"><svg t="1611642733045" class="icon" viewBox="0 0 1024 1024" version="1.1" xmlns="http://www.w3.org/2000/svg" p-id="5115" xmlns:xlink="http://www.w3.org/1999/xlink" width="128" height="128"><defs><style type="text/css"></style></defs><path d="M864 896H160a32 32 0 0 1-32-32V586.666667a32 32 0 0 1 32-32h704a32 32 0 0 1 32 32v277.333333a32 32 0 0 1-32 32z m-672-64h640V618.666667H192v213.333333zM864 469.333333H160a32 32 0 0 1-32-32v-277.333333a32 32 0 0 1 32-32h704a32 32 0 0 1 32 32V437.333333a32 32 0 0 1-32 32zM192 405.333333h640v-213.333333H192V405.333333z" p-id="5116" fill="#bfbfbf"></path><path d="M288 298.666667m-32 0a32 32 0 1 0 64 0 32 32 0 1 0-64 0Z" p-id="5117" fill="#bfbfbf"></path><path d="M416 298.666667m-32 0a32 32 0 1 0 64 0 32 32 0 1 0-64 0Z" p-id="5118" fill="#bfbfbf"></path><path d="M288 725.333333m-32 0a32 32 0 1 0 64 0 32 32 0 1 0-64 0Z" p-id="5119" fill="#bfbfbf"></path><path d="M416 725.333333m-32 0a32 32 0 1 0 64 0 32 32 0 1 0-64 0Z" p-id="5120" fill="#bfbfbf"></path></svg>