<?xml version="1.0" standalone="no"?><!DOCTYPE svg PUBLIC "-//W3C//DTD SVG 1.1//EN" "http://www.w3.org/Graphics/SVG/1.1/DTD/svg11.dtd"><svg t="1611646952715" class="icon" viewBox="0 0 1024 1024" version="1.1" xmlns="http://www.w3.org/2000/svg" p-id="4966" xmlns:xlink="http://www.w3.org/1999/xlink" width="128" height="128"><defs><style type="text/css"></style></defs><path d="M768 341.333333h-170.666667a42.666667 42.666667 0 0 1 0-85.333333h213.333334a42.666667 42.666667 0 0 1 42.666666 42.666667v42.666666h42.666667a42.666667 42.666667 0 0 1 42.666667 42.666667v256a42.666667 42.666667 0 0 1-42.666667 42.666667h-42.666667v42.666666a42.666667 42.666667 0 0 1-42.666666 42.666667h-128a42.666667 42.666667 0 0 1 0-85.333333h85.333333v-42.666667a42.666667 42.666667 0 0 1 42.666667-42.666667h42.666666v-170.666666h-42.666666a42.666667 42.666667 0 0 1-42.666667-42.666667V341.333333zM170.666667 682.666667h170.666666a42.666667 42.666667 0 0 1 0 85.333333H128a42.666667 42.666667 0 0 1-42.666667-42.666667V298.666667a42.666667 42.666667 0 0 1 42.666667-42.666667h149.333333a42.666667 42.666667 0 1 1 0 85.333333H170.666667v341.333334z m170.666666-128a42.666667 42.666667 0 0 1-39.253333-59.477334l128-298.666666a42.666667 42.666667 0 1 1 78.506667 33.621333L406.016 469.333333H597.333333a42.666667 42.666667 0 0 1 39.253334 59.477334l-128 298.666666a42.666667 42.666667 0 1 1-78.506667-33.621333L532.650667 554.666667H341.333333z" p-id="4967" fill="#bfbfbf"></path></svg>