<?xml version="1.0" standalone="no"?><!DOCTYPE svg PUBLIC "-//W3C//DTD SVG 1.1//EN" "http://www.w3.org/Graphics/SVG/1.1/DTD/svg11.dtd"><svg t="1611646967072" class="icon" viewBox="0 0 1024 1024" version="1.1" xmlns="http://www.w3.org/2000/svg" p-id="5738" xmlns:xlink="http://www.w3.org/1999/xlink" width="128" height="128"><defs><style type="text/css"></style></defs><path d="M170.666667 298.666667v128h106.666666a64 64 0 0 0 0-128H170.666667z m469.333333 298.666666c0 95.957333 86.826667 154.026667 175.274667 116.309334a42.666667 42.666667 0 1 1 33.450666 78.506666C703.744 853.930667 554.666667 754.218667 554.666667 597.333333c0-116.650667 84.608-213.333333 192-213.333333s192 96.682667 192 213.333333a42.666667 42.666667 0 0 1-42.666667 42.666667h-170.666667a42.666667 42.666667 0 0 1 0-85.333333h121.941334c-14.848-50.218667-55.082667-85.333333-100.608-85.333334-57.557333 0-106.666667 56.149333-106.666667 128z m-238.08-152.32A192 192 0 0 1 320 810.666667H128a42.666667 42.666667 0 0 1-42.666667-42.666667V256a42.666667 42.666667 0 0 1 42.666667-42.666667h149.333333a149.333333 149.333333 0 0 1 124.586667 231.68zM170.666667 512v213.333333h149.333333a106.666667 106.666667 0 1 0 0-213.333333H170.666667z m512-170.666667a42.666667 42.666667 0 0 1 0-85.333333h128a42.666667 42.666667 0 0 1 0 85.333333h-128z" p-id="5739" fill="#bfbfbf"></path></svg>