<?xml version="1.0" standalone="no"?><!DOCTYPE svg PUBLIC "-//W3C//DTD SVG 1.1//EN" "http://www.w3.org/Graphics/SVG/1.1/DTD/svg11.dtd"><svg t="1611646949274" class="icon" viewBox="0 0 1024 1024" version="1.1" xmlns="http://www.w3.org/2000/svg" p-id="4773" xmlns:xlink="http://www.w3.org/1999/xlink" width="128" height="128"><defs><style type="text/css"></style></defs><path d="M583.125333 512l210.474667 157.866667a42.666667 42.666667 0 0 1 0 68.266666l-256 192A42.666667 42.666667 0 0 1 469.333333 896v-366.336L225.834667 286.165333a42.666667 42.666667 0 0 1 60.330666-60.330666L469.333333 409.002667V128a42.666667 42.666667 0 0 1 68.266667-34.133333l256 192a42.666667 42.666667 0 0 1 0 68.266666L583.125333 512zM554.666667 426.666667l142.208-106.666667L554.666667 213.333333v213.333334z m-200.832 183.168a42.666667 42.666667 0 1 1 60.330666 60.330666l-128 128a42.666667 42.666667 0 1 1-60.330666-60.330666l128-128zM554.666667 810.666667l142.208-106.666667L554.666667 597.333333v213.333334z" p-id="4774" fill="#bfbfbf"></path></svg>