<?xml version="1.0" standalone="no"?><!DOCTYPE svg PUBLIC "-//W3C//DTD SVG 1.1//EN" "http://www.w3.org/Graphics/SVG/1.1/DTD/svg11.dtd"><svg t="1611646973767" class="icon" viewBox="0 0 1024 1024" version="1.1" xmlns="http://www.w3.org/2000/svg" p-id="6124" xmlns:xlink="http://www.w3.org/1999/xlink" width="128" height="128"><defs><style type="text/css"></style></defs><path d="M256 803.242667l228.266667-195.626667a42.666667 42.666667 0 0 1 57.898666 2.218667l128 128a42.666667 42.666667 0 0 1-60.330666 60.330666l-100.053334-100.053333-268.672 230.272A42.666667 42.666667 0 0 1 170.666667 896V128a42.666667 42.666667 0 0 1 42.666666-42.666667h597.333334a42.666667 42.666667 0 0 1 42.666666 42.666667v768a42.666667 42.666667 0 0 1-85.333333 0V170.666667H256v632.576z" p-id="6125" fill="#bfbfbf"></path></svg>