<?xml version="1.0" standalone="no"?><!DOCTYPE svg PUBLIC "-//W3C//DTD SVG 1.1//EN" "http://www.w3.org/Graphics/SVG/1.1/DTD/svg11.dtd"><svg t="1611646970487" class="icon" viewBox="0 0 1024 1024" version="1.1" xmlns="http://www.w3.org/2000/svg" p-id="5931" xmlns:xlink="http://www.w3.org/1999/xlink" width="128" height="128"><defs><style type="text/css"></style></defs><path d="M810.666667 213.333333h-298.666667a42.666667 42.666667 0 0 1 0-85.333333h341.333333a42.666667 42.666667 0 0 1 42.666667 42.666667v682.666666a42.666667 42.666667 0 0 1-42.666667 42.666667H170.666667a42.666667 42.666667 0 0 1-42.666667-42.666667V170.666667a42.666667 42.666667 0 0 1 42.666667-42.666667h213.333333a42.666667 42.666667 0 0 1 42.666667 42.666667v218.922666l61.653333-41.088a42.666667 42.666667 0 0 1 47.36 0L597.333333 389.546667V298.666667a42.666667 42.666667 0 0 1 85.333334 0v170.666666a42.666667 42.666667 0 0 1-66.346667 35.498667L512 435.285333l-104.32 69.546667A42.666667 42.666667 0 0 1 341.333333 469.333333V213.333333H213.333333v597.333334h597.333334V213.333333z" p-id="5932" fill="#bfbfbf"></path></svg>