<?xml version="1.0" standalone="no"?><!DOCTYPE svg PUBLIC "-//W3C//DTD SVG 1.1//EN" "http://www.w3.org/Graphics/SVG/1.1/DTD/svg11.dtd"><svg t="1611646987726" class="icon" viewBox="0 0 1024 1024" version="1.1" xmlns="http://www.w3.org/2000/svg" p-id="6896" xmlns:xlink="http://www.w3.org/1999/xlink" width="128" height="128"><defs><style type="text/css"></style></defs><path d="M810.666667 213.333333H341.333333a42.666667 42.666667 0 1 1 0-85.333333h512a42.666667 42.666667 0 0 1 42.666667 42.666667v682.666666a42.666667 42.666667 0 0 1-42.666667 42.666667H170.666667a42.666667 42.666667 0 0 1-42.666667-42.666667V170.666667a42.666667 42.666667 0 1 1 85.333333 0v640h597.333334V213.333333zM341.333333 426.666667a42.666667 42.666667 0 1 1 0-85.333334h341.333334a42.666667 42.666667 0 0 1 0 85.333334H341.333333z m0 128a42.666667 42.666667 0 0 1 0-85.333334h341.333334a42.666667 42.666667 0 0 1 0 85.333334H341.333333z m0 128a42.666667 42.666667 0 0 1 0-85.333334h213.333334a42.666667 42.666667 0 0 1 0 85.333334H341.333333z" p-id="6897" fill="#bfbfbf"></path></svg>