<?xml version="1.0" standalone="no"?><!DOCTYPE svg PUBLIC "-//W3C//DTD SVG 1.1//EN" "http://www.w3.org/Graphics/SVG/1.1/DTD/svg11.dtd"><svg t="1611646990852" class="icon" viewBox="0 0 1024 1024" version="1.1" xmlns="http://www.w3.org/2000/svg" p-id="7089" xmlns:xlink="http://www.w3.org/1999/xlink" width="128" height="128"><defs><style type="text/css"></style></defs><path d="M640 298.666667H384v42.666666a42.666667 42.666667 0 1 1-85.333333 0V298.666667H213.333333v21.333333a42.666667 42.666667 0 1 1-85.333333 0V256a42.666667 42.666667 0 0 1 42.666667-42.666667h128V170.666667a42.666667 42.666667 0 1 1 85.333333 0v42.666666h256V170.666667a42.666667 42.666667 0 0 1 85.333333 0v42.666666h128a42.666667 42.666667 0 0 1 42.666667 42.666667v469.333333a42.666667 42.666667 0 0 1-12.501333 30.165334l-128 128A42.666667 42.666667 0 0 1 725.333333 896H170.666667a42.666667 42.666667 0 0 1-42.666667-42.666667v-384a42.666667 42.666667 0 0 1 42.666667-42.666666h554.666666a42.666667 42.666667 0 0 1 0 85.333333H213.333333v298.666667h494.336L810.666667 707.669333V298.666667h-85.333334v42.666666a42.666667 42.666667 0 0 1-85.333333 0V298.666667z" p-id="7090" fill="#bfbfbf"></path></svg>