<?xml version="1.0" standalone="no"?><!DOCTYPE svg PUBLIC "-//W3C//DTD SVG 1.1//EN" "http://www.w3.org/Graphics/SVG/1.1/DTD/svg11.dtd"><svg t="1611647039482" class="icon" viewBox="0 0 1024 1024" version="1.1" xmlns="http://www.w3.org/2000/svg" p-id="9453" xmlns:xlink="http://www.w3.org/1999/xlink" width="128" height="128"><defs><style type="text/css"></style></defs><path d="M469.333333 719.957333A170.752 170.752 0 0 1 512 384a170.666667 170.666667 0 0 1 42.666667 335.957333V810.666667a42.666667 42.666667 0 0 1-42.666667 42.666666H128a42.666667 42.666667 0 0 1-42.666667-42.666666V336.938667a42.666667 42.666667 0 0 1 41.685334-42.666667l137.813333-3.157333L332.373333 189.653333A42.666667 42.666667 0 0 1 367.914667 170.666667h288.170666a42.666667 42.666667 0 0 1 35.498667 18.986666l67.584 101.461334 137.813333 3.157333a42.666667 42.666667 0 0 1 41.685334 42.666667V810.666667a42.666667 42.666667 0 0 1-42.666667 42.666666h-213.333333a42.666667 42.666667 0 0 1 0-85.333333h170.666666V378.624l-118.314666-2.730667a42.666667 42.666667 0 0 1-34.56-18.986666L633.301333 256H390.741333L323.498667 356.906667a42.666667 42.666667 0 0 1-34.517334 18.986666L170.666667 378.624V768h298.666666v-48.042667zM512 640a85.333333 85.333333 0 1 0 0-170.666667 85.333333 85.333333 0 0 0 0 170.666667z" p-id="9454" fill="#bfbfbf"></path></svg>