<?xml version="1.0" standalone="no"?><!DOCTYPE svg PUBLIC "-//W3C//DTD SVG 1.1//EN" "http://www.w3.org/Graphics/SVG/1.1/DTD/svg11.dtd"><svg t="1611647002830" class="icon" viewBox="0 0 1024 1024" version="1.1" xmlns="http://www.w3.org/2000/svg" p-id="7716" xmlns:xlink="http://www.w3.org/1999/xlink" width="128" height="128"><defs><style type="text/css"></style></defs><path d="M213.333333 656.298667l61.738667 30.890666A42.666667 42.666667 0 0 1 298.666667 725.333333v128a42.666667 42.666667 0 0 1-85.333334 0v-101.632l-61.738666-30.890666A42.666667 42.666667 0 0 1 128 682.666667v-170.666667a42.666667 42.666667 0 0 1 12.501333-30.165333l42.666667-42.666667A42.666667 42.666667 0 0 1 213.333333 426.666667h597.333334a42.666667 42.666667 0 0 1 30.165333 12.501333l42.666667 42.666667A42.666667 42.666667 0 0 1 896 512v170.666667a42.666667 42.666667 0 0 1-23.594667 38.144L810.666667 751.701333V853.333333a42.666667 42.666667 0 0 1-85.333334 0v-128a42.666667 42.666667 0 0 1 23.594667-38.144L810.666667 656.298667v-126.634667L793.002667 512H230.997333L213.333333 529.664v126.634667zM298.666667 640a42.666667 42.666667 0 1 1 0-85.333333 42.666667 42.666667 0 0 1 0 85.333333z m426.666666 0a42.666667 42.666667 0 1 1 0-85.333333 42.666667 42.666667 0 0 1 0 85.333333zM331.946667 213.333333l-34.56 138.368A42.666667 42.666667 0 0 1 256 384H170.666667a42.666667 42.666667 0 1 1 0-85.333333h52.053333l34.56-138.368A42.666667 42.666667 0 0 1 298.666667 128h426.666666a42.666667 42.666667 0 0 1 41.386667 32.298667L801.28 298.666667H853.333333a42.666667 42.666667 0 0 1 0 85.333333h-85.333333a42.666667 42.666667 0 0 1-41.386667-32.298667L692.053333 213.333333H331.946667zM384 768a42.666667 42.666667 0 0 1 0-85.333333h256a42.666667 42.666667 0 0 1 0 85.333333H384z" p-id="7717" fill="#bfbfbf"></path></svg>