<?xml version="1.0" standalone="no"?><!DOCTYPE svg PUBLIC "-//W3C//DTD SVG 1.1//EN" "http://www.w3.org/Graphics/SVG/1.1/DTD/svg11.dtd"><svg t="1611647053003" class="icon" viewBox="0 0 1024 1024" version="1.1" xmlns="http://www.w3.org/2000/svg" p-id="10225" xmlns:xlink="http://www.w3.org/1999/xlink" width="128" height="128"><defs><style type="text/css"></style></defs><path d="M289.28 810.666667H597.333333a42.666667 42.666667 0 0 1 0 85.333333H256a42.666667 42.666667 0 0 1-41.386667-32.298667l-85.333333-341.333333A42.666667 42.666667 0 0 1 170.666667 469.333333h682.666666a42.666667 42.666667 0 0 1 41.386667 53.034667l-85.333333 341.333333a42.666667 42.666667 0 0 1-82.773334-20.736L798.72 554.666667H225.28l64 256zM341.333333 213.333333a42.666667 42.666667 0 1 1 0-85.333333h341.333334a42.666667 42.666667 0 0 1 0 85.333333H341.333333zM256 384a42.666667 42.666667 0 1 1 0-85.333333h512a42.666667 42.666667 0 0 1 0 85.333333H256z" p-id="10226" fill="#bfbfbf"></path></svg>