<?xml version="1.0" standalone="no"?><!DOCTYPE svg PUBLIC "-//W3C//DTD SVG 1.1//EN" "http://www.w3.org/Graphics/SVG/1.1/DTD/svg11.dtd"><svg t="1611647033238" class="icon" viewBox="0 0 1024 1024" version="1.1" xmlns="http://www.w3.org/2000/svg" p-id="9260" xmlns:xlink="http://www.w3.org/1999/xlink" width="128" height="128"><defs><style type="text/css"></style></defs><path d="M724.650667 298.666667l-233.813334-133.632a42.666667 42.666667 0 1 1 42.325334-74.069334l298.666666 170.666667a42.666667 42.666667 0 0 1 0 74.069333l-298.666666 170.666667a42.666667 42.666667 0 0 1-42.325334 0l-298.666666-170.666667a42.666667 42.666667 0 0 1 0-74.069333l164.906666-94.250667A42.666667 42.666667 0 1 1 399.36 241.493333L299.349333 298.666667 512 420.181333 724.650667 298.666667z m64.853333 176.298666a42.666667 42.666667 0 1 1 42.325333 74.069334l-298.666666 170.666666a42.666667 42.666667 0 0 1-42.325334 0l-298.666666-170.666666a42.666667 42.666667 0 1 1 42.325333-74.069334L512 633.514667l277.504-158.549334z m0 213.333334a42.666667 42.666667 0 1 1 42.325333 74.069333l-298.666666 170.666667a42.666667 42.666667 0 0 1-42.325334 0l-298.666666-170.666667a42.666667 42.666667 0 1 1 42.325333-74.069333L512 846.848l277.504-158.549333z" p-id="9261" fill="#bfbfbf"></path></svg>