<?xml version="1.0" standalone="no"?><!DOCTYPE svg PUBLIC "-//W3C//DTD SVG 1.1//EN" "http://www.w3.org/Graphics/SVG/1.1/DTD/svg11.dtd"><svg t="1611647013485" class="icon" viewBox="0 0 1024 1024" version="1.1" xmlns="http://www.w3.org/2000/svg" p-id="8295" xmlns:xlink="http://www.w3.org/1999/xlink" width="128" height="128"><defs><style type="text/css"></style></defs><path d="M128 853.333333a42.666667 42.666667 0 1 1 0-85.333333 42.666667 42.666667 0 0 1 0 85.333333z m213.333333-42.666666a42.666667 42.666667 0 0 1-85.333333 0 128 128 0 0 0-128-128 42.666667 42.666667 0 0 1 0-85.333334 213.333333 213.333333 0 0 1 213.333333 213.333334z m170.666667 0a42.666667 42.666667 0 0 1-85.333333 0 298.666667 298.666667 0 0 0-298.666667-298.666667 42.666667 42.666667 0 0 1 0-85.333333 384 384 0 0 1 384 384zM170.666667 256v42.666667a42.666667 42.666667 0 1 1-85.333334 0V213.333333a42.666667 42.666667 0 0 1 42.666667-42.666666h768a42.666667 42.666667 0 0 1 42.666667 42.666666v597.333334a42.666667 42.666667 0 0 1-42.666667 42.666666h-256a42.666667 42.666667 0 0 1 0-85.333333h213.333333V256H170.666667z" p-id="8296" fill="#bfbfbf"></path></svg>