<?xml version="1.0" standalone="no"?><!DOCTYPE svg PUBLIC "-//W3C//DTD SVG 1.1//EN" "http://www.w3.org/Graphics/SVG/1.1/DTD/svg11.dtd"><svg t="1611642884124" class="icon" viewBox="0 0 1024 1024" version="1.1" xmlns="http://www.w3.org/2000/svg" p-id="1020" xmlns:xlink="http://www.w3.org/1999/xlink" width="128" height="128"><defs><style type="text/css"></style></defs><path d="M836.255189 1022.848003H192.288799a106.815733 106.815733 0 0 1-106.943732-106.943733V193.410076a106.815733 106.815733 0 0 1 106.943732-106.943732h143.359642v45.503886h-143.359642c-34.143915 0-61.439846 27.295932-61.439846 61.439846v722.494194c0 34.143915 27.295932 61.439846 61.439846 61.439847h643.96639c34.143915 0 61.439846-27.295932 61.439847-61.439847V192.290079c0-34.143915-27.295932-61.439846-61.439847-61.439846h-133.119667V85.346347h133.119667a106.815733 106.815733 0 0 1 106.943733 106.943732v723.614191a106.815733 106.815733 0 0 1-106.943733 106.943733z m-153.599616-795.294012H368.640358a66.559834 66.559834 0 0 1-67.135832-67.135832V67.106392A66.559834 66.559834 0 0 1 368.640358-0.02944h314.015215a66.559834 66.559834 0 0 1 67.135833 67.135832v93.311767a66.559834 66.559834 0 0 1-67.135833 67.135832zM368.640358 45.506446a20.927948 20.927948 0 0 0-21.631946 21.631946v93.311767a22.399944 22.399944 0 0 0 21.631946 21.631946h314.015215a22.399944 22.399944 0 0 0 21.631946-21.631946V67.138392a22.399944 22.399944 0 0 0-21.631946-21.631946H368.640358zM213.888745 408.449539h259.423352c7.96798 0 14.783963 9.087977 14.783963 21.631946v13.663966c0 11.391972-6.815983 21.631946-14.783963 21.631946H213.888745c-7.96798 0-14.783963-9.087977-14.783963-21.631946v-14.783963c0-11.391972 6.815983-20.479949 14.783963-20.479949z m474.462814 150.207624l-108.09573-109.215727c-9.087977-9.087977-9.087977-23.90394 0-31.87192 9.087977-9.087977 23.90394-9.087977 31.871921 0l71.67982 72.831818 122.879693-153.599616c7.96798-10.239974 21.631946-11.391972 31.871921-3.423991s11.391972 21.631946 3.423991 31.87192l-153.599616 193.407516zM202.528774 670.144885h259.423351c7.96798 0 14.783963 9.087977 14.783963 21.631946v13.663965c0 11.391972-6.815983 21.631946-14.783963 21.631946H202.528774c-7.96798 0-14.783963-9.087977-14.783963-21.631946v-14.783963c0-11.391972 6.815983-20.479949 14.783963-20.479948z m474.462814 150.207624l-108.09573-109.215727c-9.087977-9.087977-9.087977-23.90394 0-31.87192 9.087977-9.087977 23.90394-9.087977 31.87192 0l71.679821 72.831818 122.879693-153.599616c7.96798-10.239974 21.631946-11.391972 31.87192-3.423992s11.391972 21.631946 3.423991 31.871921l-153.599616 193.407516z" p-id="1021" fill="#bfbfbf"></path></svg>