<?xml version="1.0" standalone="no"?><!DOCTYPE svg PUBLIC "-//W3C//DTD SVG 1.1//EN" "http://www.w3.org/Graphics/SVG/1.1/DTD/svg11.dtd"><svg t="1611642889014" class="icon" viewBox="0 0 1024 1024" version="1.1" xmlns="http://www.w3.org/2000/svg" p-id="1225" xmlns:xlink="http://www.w3.org/1999/xlink" width="128" height="128"><defs><style type="text/css"></style></defs><path d="M943.296 788.416H786.56V112.704v-0.16a30.688 30.688 0 1 0-61.376 0V604.16h-69.952l-87.776-263.584c-20.864-61.504-78.08-104.992-145.472-104.992h-157.12a30.72 30.72 0 0 0-30.688 30.688v276.416H80.736a30.72 30.72 0 0 0-30.688 30.688v245.728c0 16.96 13.728 30.688 30.688 30.688h30.688a92.064 92.064 0 1 0 184.128 0h127.104c13.728 52.832 61.376 92.128 118.4 92.128a122.944 122.944 0 0 0 122.752-122.848v-30.72h61.376v30.72c0 16.96 13.728 30.688 30.688 30.688h187.424a30.72 30.72 0 0 0 0-61.44zM509.216 360l81.312 244.128H488.96l-72.448-48.352c-7.68-66.08-55.744-119.744-120.96-132.832V296.992H421.952c40.416 0 74.752 26.08 87.072 62.336l0.192 0.64z m-213.664 126.944c26.848 9.28 46.464 29.76 55.712 55.776H295.552v-55.776zM203.488 880.576h-0.032a30.72 30.72 0 1 1 30.72-30.72 30.72 30.72 0 0 1-30.688 30.72z m68.128-92.16c-16.864-18.72-41.024-30.72-68.128-30.72s-51.264 12-68.128 30.72h-23.936v-184.288h266.912l84.352 56.256a30.4 30.4 0 0 0 17.024 5.152h122.72v47.808a117.6 117.6 0 0 0-61.376-17.088c-57.024 0-104.672 39.296-118.4 92.128h-151.04z m269.44 92.16h-0.064a61.44 61.44 0 1 1 61.44-61.44 61.504 61.504 0 0 1-61.376 61.44z m122.752-153.568v-61.44h61.376v61.44h-61.376z" p-id="1226" fill="#bfbfbf"></path></svg>