<?xml version="1.0" standalone="no"?><!DOCTYPE svg PUBLIC "-//W3C//DTD SVG 1.1//EN" "http://www.w3.org/Graphics/SVG/1.1/DTD/svg11.dtd"><svg t="1611647020735" class="icon" viewBox="0 0 1024 1024" version="1.1" xmlns="http://www.w3.org/2000/svg" p-id="8681" xmlns:xlink="http://www.w3.org/1999/xlink" width="128" height="128"><defs><style type="text/css"></style></defs><path d="M341.333333 170.666667H298.666667a42.666667 42.666667 0 1 1 0-85.333334h426.666666a42.666667 42.666667 0 0 1 0 85.333334h-42.666666v298.666666a42.666667 42.666667 0 0 1-85.333334 0V170.666667h-170.666666v298.666666a42.666667 42.666667 0 0 1-4.522667 19.072L256 820.778667V853.333333h512v-30.848L658.517333 640H469.333333a42.666667 42.666667 0 0 1 0-85.333333h213.333334a42.666667 42.666667 0 0 1 36.565333 20.736l128 213.333333A42.666667 42.666667 0 0 1 853.333333 810.666667v85.333333a42.666667 42.666667 0 0 1-42.666666 42.666667H213.333333a42.666667 42.666667 0 0 1-42.666666-42.666667v-85.333333a42.666667 42.666667 0 0 1 4.522666-19.072L341.333333 459.221333V170.666667z" p-id="8682" fill="#bfbfbf"></path></svg>