<?xml version="1.0" standalone="no"?><!DOCTYPE svg PUBLIC "-//W3C//DTD SVG 1.1//EN" "http://www.w3.org/Graphics/SVG/1.1/DTD/svg11.dtd"><svg t="1611647029283" class="icon" viewBox="0 0 1024 1024" version="1.1" xmlns="http://www.w3.org/2000/svg" p-id="9067" xmlns:xlink="http://www.w3.org/1999/xlink" width="128" height="128"><defs><style type="text/css"></style></defs><path d="M512 451.669333l97.834667-97.834666a42.666667 42.666667 0 0 1 60.330666 60.330666l-256 256a42.666667 42.666667 0 1 1-60.330666-60.330666L451.669333 512 353.834667 414.165333a42.666667 42.666667 0 0 1 60.330666-60.330666L512 451.669333zM810.666667 213.333333H341.333333a42.666667 42.666667 0 1 1 0-85.333333h512a42.666667 42.666667 0 0 1 42.666667 42.666667v682.666666a42.666667 42.666667 0 0 1-42.666667 42.666667H170.666667a42.666667 42.666667 0 0 1-42.666667-42.666667V170.666667a42.666667 42.666667 0 1 1 85.333333 0v640h597.333334V213.333333z m-243.498667 414.165334a42.666667 42.666667 0 0 1 60.330667-60.330667l42.666666 42.666667a42.666667 42.666667 0 0 1-60.330666 60.330666l-42.666667-42.666666z" p-id="9068" fill="#bfbfbf"></path></svg>