<?xml version="1.0" standalone="no"?><!DOCTYPE svg PUBLIC "-//W3C//DTD SVG 1.1//EN" "http://www.w3.org/Graphics/SVG/1.1/DTD/svg11.dtd"><svg t="1611647046413" class="icon" viewBox="0 0 1024 1024" version="1.1" xmlns="http://www.w3.org/2000/svg" p-id="9839" xmlns:xlink="http://www.w3.org/1999/xlink" width="128" height="128"><defs><style type="text/css"></style></defs><path d="M512 451.669333l97.834667-97.834666a42.666667 42.666667 0 0 1 60.330666 60.330666l-256 256a42.666667 42.666667 0 1 1-60.330666-60.330666L451.669333 512 353.834667 414.165333a42.666667 42.666667 0 0 1 60.330666-60.330666L512 451.669333zM512 170.666667a42.666667 42.666667 0 0 1 0-85.333334c235.648 0 426.666667 191.018667 426.666667 426.666667s-191.018667 426.666667-426.666667 426.666667S85.333333 747.648 85.333333 512a426.538667 426.538667 0 0 1 224.426667-375.765333 42.666667 42.666667 0 0 1 40.533333 75.093333A341.333333 341.333333 0 1 0 512 170.666667z m55.168 456.832a42.666667 42.666667 0 0 1 60.330667-60.330667l42.666666 42.666667a42.666667 42.666667 0 0 1-60.330666 60.330666l-42.666667-42.666666z" p-id="9840" fill="#bfbfbf"></path></svg>