<?xml version="1.0" standalone="no"?><!DOCTYPE svg PUBLIC "-//W3C//DTD SVG 1.1//EN" "http://www.w3.org/Graphics/SVG/1.1/DTD/svg11.dtd"><svg t="1611647060389" class="icon" viewBox="0 0 1024 1024" version="1.1" xmlns="http://www.w3.org/2000/svg" p-id="10659" xmlns:xlink="http://www.w3.org/1999/xlink" width="128" height="128"><defs><style type="text/css"></style></defs><path d="M640 640V384H170.666667a42.666667 42.666667 0 1 1 0-85.333333h128V170.666667a42.666667 42.666667 0 1 1 85.333333 0v128h298.666667a42.666667 42.666667 0 0 1 42.666666 42.666666v298.666667h128a42.666667 42.666667 0 0 1 0 85.333333h-128v128a42.666667 42.666667 0 0 1-85.333333 0v-128H341.333333a42.666667 42.666667 0 0 1-42.666666-42.666666v-170.666667a42.666667 42.666667 0 0 1 85.333333 0v128h256z" p-id="10660" fill="#bfbfbf"></path></svg>