<?xml version="1.0" standalone="no"?><!DOCTYPE svg PUBLIC "-//W3C//DTD SVG 1.1//EN" "http://www.w3.org/Graphics/SVG/1.1/DTD/svg11.dtd"><svg t="1611642633883" class="icon" viewBox="0 0 1024 1024" version="1.1" xmlns="http://www.w3.org/2000/svg" p-id="995" xmlns:xlink="http://www.w3.org/1999/xlink" width="128" height="128"><defs><style type="text/css"></style></defs><path d="M746.666667 896H160a32 32 0 0 1-32-32v-664.885333a32 32 0 0 1 32-32h439.584a32 32 0 1 1 0 64H192V832h522.666667V472.885333a32 32 0 1 1 64 0V864a32 32 0 0 1-32 32z" p-id="996" fill="#bfbfbf"></path><path d="M469.333333 490.666667H320a32 32 0 1 1 0-64h149.333333a32 32 0 1 1 0 64zM586.666667 682.666667H320a32 32 0 1 1 0-64h266.666667a32 32 0 1 1 0 64zM629.333333 426.666667a31.978667 31.978667 0 0 1-22.624-54.624l234.666667-234.666667a31.978667 31.978667 0 0 1 45.248 0 31.978667 31.978667 0 0 1 0 45.248l-234.666667 234.666667A31.893333 31.893333 0 0 1 629.333333 426.666667z" p-id="997" fill="#bfbfbf"></path></svg>