<?xml version="1.0" standalone="no"?><!DOCTYPE svg PUBLIC "-//W3C//DTD SVG 1.1//EN" "http://www.w3.org/Graphics/SVG/1.1/DTD/svg11.dtd"><svg t="1611647071541" class="icon" viewBox="0 0 1024 1024" version="1.1" xmlns="http://www.w3.org/2000/svg" p-id="11238" xmlns:xlink="http://www.w3.org/1999/xlink" width="128" height="128"><defs><style type="text/css"></style></defs><path d="M418.688 433.664L331.52 539.178667A42.666667 42.666667 0 0 1 298.666667 554.666667H170.666667a42.666667 42.666667 0 0 1-42.666667-42.666667V170.666667a42.666667 42.666667 0 0 1 42.666667-42.666667h682.666666a42.666667 42.666667 0 0 1 42.666667 42.666667v170.666666a42.666667 42.666667 0 0 1-85.333333 0V213.333333H213.333333v256h65.237334l115.2-139.52a42.666667 42.666667 0 0 1 70.698666 7.381334l139.264 265.813333L691.2 486.4a42.666667 42.666667 0 0 1 34.133333-17.066667h128a42.666667 42.666667 0 0 1 42.666667 42.666667v341.333333a42.666667 42.666667 0 0 1-42.666667 42.666667H170.666667a42.666667 42.666667 0 0 1-42.666667-42.666667v-170.666666a42.666667 42.666667 0 0 1 85.333333 0v128h597.333334v-256h-64l-115.2 153.6a42.666667 42.666667 0 0 1-71.936-5.802667l-140.842667-268.8z" p-id="11239" fill="#bfbfbf"></path></svg>