<?xml version="1.0" standalone="no"?><!DOCTYPE svg PUBLIC "-//W3C//DTD SVG 1.1//EN" "http://www.w3.org/Graphics/SVG/1.1/DTD/svg11.dtd"><svg t="1611647078972" class="icon" viewBox="0 0 1024 1024" version="1.1" xmlns="http://www.w3.org/2000/svg" p-id="11624" xmlns:xlink="http://www.w3.org/1999/xlink" width="128" height="128"><defs><style type="text/css"></style></defs><path d="M239.701333 298.666667H682.666667a42.666667 42.666667 0 0 1 0 85.333333H170.666667a42.666667 42.666667 0 0 1-38.144-61.738667l85.333333-170.666666A42.666667 42.666667 0 0 1 256 128h512a42.666667 42.666667 0 0 1 38.144 23.594667l85.333333 170.666666a42.666667 42.666667 0 0 1-2.645333 42.752l-341.333333 512a42.666667 42.666667 0 0 1-70.101334 1.28l-277.333333-384a42.666667 42.666667 0 0 1 69.205333-49.92l241.322667 334.165334 293.504-440.277334L741.632 213.333333H282.368l-42.666667 85.333334z" p-id="11625" fill="#bfbfbf"></path></svg>