<?xml version="1.0" standalone="no"?><!DOCTYPE svg PUBLIC "-//W3C//DTD SVG 1.1//EN" "http://www.w3.org/Graphics/SVG/1.1/DTD/svg11.dtd"><svg t="1611642938830" class="icon" viewBox="0 0 1024 1024" version="1.1" xmlns="http://www.w3.org/2000/svg" p-id="3170" xmlns:xlink="http://www.w3.org/1999/xlink" width="128" height="128"><defs><style type="text/css"></style></defs><path d="M819.36 204.64c-78.656-78.656-187.232-127.392-307.232-127.392S283.552 125.984 204.768 204.64a434.176 434.176 0 0 0-127.296 307.328c0 120.128 48.512 228.704 127.296 307.36 78.752 78.848 187.328 127.392 307.36 127.392s228.576-48.512 307.232-127.392a433.44 433.44 0 0 0 127.168-307.36c0-119.68-48.64-228.256-127.168-307.328z m-47.36 47.456a368 368 0 0 1 107.392 239.808h-116.992a35.456 35.456 0 0 0-10.048-9.376l-0.16-0.096c-2.912-73.536-16.64-141.728-37.536-200.192a32.32 32.32 0 0 0 3.744-9.824l0.032-0.224c15.36-8.512 30.336-17.952 44.544-28.896 3.136 2.912 6.08 5.76 8.928 8.704l0.064 0.064z m-93.824 472.032a34.88 34.88 0 0 0-9.312 4.224l0.128-0.096-9.856-3.84a413.568 413.568 0 0 0-116.768-25.28 35.008 35.008 0 0 0-10.272-10.624l-0.128-0.096v-147.648c3.712-2.496 6.848-5.536 9.344-9.088l0.064-0.096h164.544c1.888 2.688 4.032 4.992 6.432 7.008l0.064 0.032c-2.816 68.384-14.976 131.776-34.24 185.408z m-194.464-25.088a408.32 408.32 0 0 0-118.112 25.408c-12.352 4.224-15.136 5.28-17.92 6.336l9.504-3.232a33.312 33.312 0 0 0-11.232-4.192l-0.224-0.032c-18.976-53.152-31.008-115.872-33.728-183.456a34.88 34.88 0 0 0 7.968-8.128l0.064-0.096h164.544c2.144 3.072 4.672 5.696 7.52 7.872l0.096 0.064v150.144c-3.392 2.56-6.208 5.664-8.448 9.152l-0.096 0.128zM346.656 298.112c2.592-0.832 4.832-1.856 6.944-3.072l-0.16 0.096c4 1.6 7.936 3.104 11.648 4.64 37.76 14.016 77.376 22.976 118.784 25.44 2.336 3.232 5.088 5.984 8.256 8.224l0.096 0.064v150.912a35.168 35.168 0 0 0-7.232 7.392l-0.064 0.096H319.744a34.464 34.464 0 0 0-7.648-7.744l-0.096-0.064c2.72-68.8 15.104-132.16 34.656-185.984z m193.472 27.104c41.6-2.464 81.408-11.424 119.04-25.472 13.088-4.768 16.288-6.08 19.488-7.36l-9.76 3.52c2.592 1.376 5.632 2.464 8.8 3.104l0.224 0.032c19.456 53.92 31.744 117.376 34.56 186.208a37.024 37.024 0 0 0-6.144 6.528l-0.064 0.096h-165.184a34.944 34.944 0 0 0-8.96-8.672l-0.128-0.064v-149.792c3.168-2.272 5.888-4.96 8.096-8.032l0.064-0.096z m191.04-108.384a281.6 281.6 0 0 1-28.896 18.656 33.888 33.888 0 0 0-9.504-3.872l-0.224-0.032a248.8 248.8 0 0 0-6.88-12.832 406.976 406.976 0 0 0-28.96-45.088c26.592 11.328 51.712 26.08 74.496 43.168zM572.8 149.28c29.184 17.952 56 48.928 77.792 88.928 1.6 2.976 3.2 5.856 4.736 8.768-2.432 3.84-4.128 8.352-4.832 13.184l-0.032 0.192c-4.16 1.568-5.984 2.304-7.808 3.072l2.272-0.864a384.96 384.96 0 0 1-104.832 22.592 34.944 34.944 0 0 0-8.032-8.064l-0.096-0.064V144.8a316.8 316.8 0 0 1 40.832 4.48z m-121.376 0c13.248-1.696 27.04-4.064 40.832-4.48v132.096a34.496 34.496 0 0 0-8.256 8.16l-0.064 0.096a386.976 386.976 0 0 1-104.832-22.592c-2.944-1.248-5.952-2.432-8.896-3.616a33.024 33.024 0 0 0-2.976-8.992l0.096 0.192c2.048-3.968 4.16-7.872 6.336-11.936 22.016-39.968 48.832-70.944 77.792-88.928z m-83.68 24.384a347.52 347.52 0 0 0-29.28 45.088 318.848 318.848 0 0 0-6.496 12.192 34.368 34.368 0 0 0-11.872 3.712l0.192-0.096a357.824 357.824 0 0 1-27.328-17.728 362.976 362.976 0 0 1 74.816-43.168z m-115.52 78.432c2.56-2.976 6.176-5.984 8.992-8.768 13.024 10.016 26.688 18.752 40.832 26.72 0.864 5.984 3.136 11.296 6.496 15.776l-0.064-0.096c-20.736 58.016-33.6 125.408-36.48 197.92a35.2 35.2 0 0 0-8.288 8.16l-0.064 0.096H145.088c4.704-93.408 44.992-177.632 107.2-239.808z m0 520a364.096 364.096 0 0 1-107.2-240.448h118.24c2.4 3.424 5.28 6.304 8.576 8.64l0.096 0.064c2.976 73.728 16.192 142.464 37.472 200.288a33.152 33.152 0 0 0-3.808 10.944l-0.032 0.192c-15.392 9.12-30.272 18.784-44.384 29.056l-8.96-8.768z m40.704 35.712c8.704-6.592 18.624-13.216 28.928-19.264l1.472-0.8c2.112 1.152 4.544 2.176 7.136 2.88l0.256 0.064a358.56 358.56 0 0 0 37.056 59.68 372.64 372.64 0 0 1-74.816-42.528z m158.496 67.328c-28.96-18.592-55.776-49.152-77.792-88.928a44.448 44.448 0 0 1-3.264-5.824l-1.92-4c2.4-3.552 4.192-7.776 5.088-12.288l0.032-0.224c1.28-0.48 3.104-1.024 4.96-1.504l0.512-0.128a359.04 359.04 0 0 1 107.008-23.328c1.824 2.24 3.84 4.224 6.08 5.92l0.096 0.064v133.824a286.464 286.464 0 0 1-40.832-3.616z m121.376 0a281.472 281.472 0 0 1-40.832 3.616v-132.576c3.04-2.016 5.632-4.384 7.808-7.072l0.064-0.064c36.992 2.688 72.256 10.272 105.088 23.232 3.648 0.928 6.688 1.92 9.6 3.104l-0.512-0.192c0.768 3.232 1.856 6.048 3.296 8.672l-0.096-0.192c-2.112 4.16-4.384 8.288-6.624 12.544-21.792 39.744-48.64 70.304-77.792 88.928z m83.904-24.8c10.464-13.472 19.776-28.64 28.96-44.896a176.32 176.32 0 0 0 7.424-14.016c3.456-0.544 6.56-1.536 9.44-2.912l-0.192 0.096c10.016 5.728 19.616 12.096 28.864 19.2-22.752 17.088-47.872 31.008-74.496 42.528z m115.296-78.24l-8.992 8.768a520.416 520.416 0 0 0-40.992-26.912 34.432 34.432 0 0 0-6.368-16.832l0.064 0.096c20.448-56.8 33.6-123.84 36.48-195.68 4.192-2.592 7.712-5.888 10.432-9.792l0.064-0.096h116.672a367.392 367.392 0 0 1-107.392 240.448z" p-id="3171" fill="#bfbfbf"></path></svg>