<?xml version="1.0" standalone="no"?><!DOCTYPE svg PUBLIC "-//W3C//DTD SVG 1.1//EN" "http://www.w3.org/Graphics/SVG/1.1/DTD/svg11.dtd"><svg t="1611647112363" class="icon" viewBox="0 0 1024 1024" version="1.1" xmlns="http://www.w3.org/2000/svg" p-id="12637" xmlns:xlink="http://www.w3.org/1999/xlink" width="128" height="128"><defs><style type="text/css"></style></defs><path d="M244.48 724.010667c81.450667-107.349333 178.346667-179.584 289.706667-216.405334a1353.898667 1353.898667 0 0 0-14.72-34.56c-103.850667 37.12-220.245333 51.712-348.757334 43.861334a339.84 339.84 0 0 0 73.770667 207.104z m61.525333 60.16A339.84 339.84 0 0 0 512 853.333333a42.666667 42.666667 0 0 1 0 85.333334C276.352 938.666667 85.333333 747.648 85.333333 512S276.352 85.333333 512 85.333333s426.666667 191.018667 426.666667 426.666667a426.666667 426.666667 0 0 1-241.621334 384.554667 42.666667 42.666667 0 0 1-60.074666-28.544 42.666667 42.666667 0 0 1-3.84-11.52c-17.792-96.981333-40.789333-186.581333-68.992-268.885334-99.584 32.128-185.258667 97.536-258.133334 196.565334z m546.730667-292.778667a339.626667 339.626667 0 0 0-69.76-186.965333 703.317333 703.317333 0 0 1-185.045333 135.082666c6.826667 15.573333 13.525333 31.402667 19.968 47.530667 72.96-12.074667 151.296-10.666667 234.837333 4.352z m-5.632 85.76c-71.253333-13.738667-137.6-16.512-199.253333-8.362667a1912.021333 1912.021333 0 0 1 59.605333 223.104 341.333333 341.333333 0 0 0 139.648-214.784zM180.096 431.914667c111.872 6.442667 212.394667-5.632 302.037333-36.266667a1032.277333 1032.277333 0 0 0-125.568-187.648 342.016 342.016 0 0 0-176.469333 223.914667zM723.029333 243.626667A339.882667 339.882667 0 0 0 512 170.666667c-23.936 0-47.317333 2.474667-69.845333 7.168a1137.706667 1137.706667 0 0 1 118.912 184.661333 619.221333 619.221333 0 0 0 161.962666-118.826667z" p-id="12638" fill="#bfbfbf"></path></svg>