<?xml version="1.0" standalone="no"?><!DOCTYPE svg PUBLIC "-//W3C//DTD SVG 1.1//EN" "http://www.w3.org/Graphics/SVG/1.1/DTD/svg11.dtd"><svg t="1611642899416" class="icon" viewBox="0 0 1219 1024" version="1.1" xmlns="http://www.w3.org/2000/svg" p-id="1840" xmlns:xlink="http://www.w3.org/1999/xlink" width="152.375" height="128"><defs><style type="text/css"></style></defs><path d="M726.111279 679.551686h-121.023774c-18.623965 0-37.24793-18.623965-37.24793-46.559913 0-18.623965 18.623965-46.559913 37.24793-46.559913h121.023774V83.744803H83.776483v511.99904h195.487633c18.623965 0 37.24793 18.623965 37.247931 46.559913 0 18.623965-18.623965 46.559913-37.247931 46.559912H83.776483C37.21657 679.551686 0.00064 642.303756 0.00064 595.775843v-511.99904A83.423844 83.423844 0 0 1 83.776483 0.00096h642.334796a83.423844 83.423844 0 0 1 83.775842 83.775843v511.99904a83.423844 83.423844 0 0 1-83.775842 83.775843M1126.398528 1023.99904H484.063732a83.423844 83.423844 0 0 1-83.775843-83.775843v-511.99904a83.423844 83.423844 0 0 1 83.775843-83.775843h121.023773c18.623965 0 37.24793 18.623965 37.247931 46.559913 0 18.623965-18.623965 46.559913-37.247931 46.559913h-121.023773v511.99904H1126.398528V428.256157h-195.487633c-18.623965 0-37.24793-18.623965-37.247931-46.559913 0-18.623965 18.623965-46.559913 37.247931-46.559912h204.799616a83.423844 83.423844 0 0 1 83.775842 83.775843v511.99904C1210.174371 986.75111 1172.926441 1023.99904 1126.398528 1023.99904" p-id="1841" fill="#bfbfbf"></path></svg>