<?xml version="1.0" standalone="no"?><!DOCTYPE svg PUBLIC "-//W3C//DTD SVG 1.1//EN" "http://www.w3.org/Graphics/SVG/1.1/DTD/svg11.dtd"><svg t="1611647101161" class="icon" viewBox="0 0 1024 1024" version="1.1" xmlns="http://www.w3.org/2000/svg" p-id="12058" xmlns:xlink="http://www.w3.org/1999/xlink" width="128" height="128"><defs><style type="text/css"></style></defs><path d="M768 810.666667v-298.666667a42.666667 42.666667 0 0 1 85.333333 0v341.333333a42.666667 42.666667 0 0 1-42.666666 42.666667H170.666667a42.666667 42.666667 0 0 1-42.666667-42.666667V213.333333a42.666667 42.666667 0 0 1 42.666667-42.666666h341.333333a42.666667 42.666667 0 0 1 0 85.333333H213.333333v554.666667h554.666667z m55.168-670.165334a42.666667 42.666667 0 0 1 60.330667 60.330667l-405.888 405.888a42.666667 42.666667 0 1 1-60.330667-60.330667l405.888-405.888z" p-id="12059" fill="#bfbfbf"></path></svg>