<?xml version="1.0" standalone="no"?><!DOCTYPE svg PUBLIC "-//W3C//DTD SVG 1.1//EN" "http://www.w3.org/Graphics/SVG/1.1/DTD/svg11.dtd"><svg t="1611642819582" class="icon" viewBox="0 0 1024 1024" version="1.1" xmlns="http://www.w3.org/2000/svg" p-id="7201" xmlns:xlink="http://www.w3.org/1999/xlink" width="128" height="128"><defs><style type="text/css"></style></defs><path d="M512 85.333333c-235.306667 0-426.666667 191.36-426.666667 426.666667s191.36 426.666667 426.666667 426.666667 426.666667-191.36 426.666667-426.666667-191.36-426.666667-426.666667-426.666667z m0 789.333334c-200 0-362.666667-162.666667-362.666667-362.666667s162.666667-362.666667 362.666667-362.666667 362.666667 162.666667 362.666667 362.666667-162.666667 362.666667-362.666667 362.666667z" p-id="7202" fill="#bfbfbf"></path><path d="M736 544a32 32 0 0 1-32-32c0-105.866667-86.133333-192-192-192S320 406.133333 320 512a32 32 0 1 1-64 0c0-141.162667 114.837333-256 256-256 141.152 0 256 114.837333 256 256a32 32 0 0 1-32 32z" p-id="7203" fill="#bfbfbf"></path><path d="M544 592.96V480c0-17.706667-14.293333-32-32-32s-32 14.293333-32 32v112.96c-31.253333 12.693333-53.333333 43.306667-53.333333 79.04 0 47.04 38.293333 85.333333 85.333333 85.333333s85.333333-38.293333 85.333333-85.333333c0-35.733333-22.08-66.346667-53.333333-79.04zM512 693.333333c-11.733333 0-21.333333-9.6-21.333333-21.333333s9.6-21.333333 21.333333-21.333333 21.333333 9.6 21.333333 21.333333-9.6 21.333333-21.333333 21.333333z" p-id="7204" fill="#bfbfbf"></path></svg>