<?xml version="1.0" standalone="no"?><!DOCTYPE svg PUBLIC "-//W3C//DTD SVG 1.1//EN" "http://www.w3.org/Graphics/SVG/1.1/DTD/svg11.dtd"><svg t="1611647104958" class="icon" viewBox="0 0 1024 1024" version="1.1" xmlns="http://www.w3.org/2000/svg" p-id="12251" xmlns:xlink="http://www.w3.org/1999/xlink" width="128" height="128"><defs><style type="text/css"></style></defs><path d="M213.333333 213.333333v170.666667a42.666667 42.666667 0 1 1-85.333333 0V170.666667a42.666667 42.666667 0 0 1 42.666667-42.666667h213.333333a42.666667 42.666667 0 1 1 0 85.333333H213.333333z m597.333334 0h-170.666667a42.666667 42.666667 0 0 1 0-85.333333h213.333333a42.666667 42.666667 0 0 1 42.666667 42.666667v213.333333a42.666667 42.666667 0 0 1-85.333333 0V213.333333zM213.333333 810.666667h170.666667a42.666667 42.666667 0 0 1 0 85.333333H170.666667a42.666667 42.666667 0 0 1-42.666667-42.666667v-213.333333a42.666667 42.666667 0 0 1 85.333333 0v170.666667z m597.333334 0v-170.666667a42.666667 42.666667 0 0 1 85.333333 0v213.333333a42.666667 42.666667 0 0 1-42.666667 42.666667h-213.333333a42.666667 42.666667 0 0 1 0-85.333333h170.666667zM268.501333 328.832a42.666667 42.666667 0 0 1 60.330667-60.330667l85.333333 85.333334a42.666667 42.666667 0 1 1-60.330666 60.330666l-85.333334-85.333333z m341.333334 341.333333a42.666667 42.666667 0 0 1 60.330666-60.330666l85.333334 85.333333a42.666667 42.666667 0 0 1-60.330667 60.330667l-85.333333-85.333334z m60.330666-256a42.666667 42.666667 0 1 1-60.330666-60.330666l85.333333-85.333334a42.666667 42.666667 0 0 1 60.330667 60.330667l-85.333334 85.333333z m-341.333333 341.333334a42.666667 42.666667 0 1 1-60.330667-60.330667l85.333334-85.333333a42.666667 42.666667 0 1 1 60.330666 60.330666l-85.333333 85.333334z" p-id="12252" fill="#bfbfbf"></path></svg>