<?xml version="1.0" standalone="no"?><!DOCTYPE svg PUBLIC "-//W3C//DTD SVG 1.1//EN" "http://www.w3.org/Graphics/SVG/1.1/DTD/svg11.dtd"><svg t="1611642850620" class="icon" viewBox="0 0 1024 1024" version="1.1" xmlns="http://www.w3.org/2000/svg" p-id="8756" xmlns:xlink="http://www.w3.org/1999/xlink" width="128" height="128"><defs><style type="text/css"></style></defs><path d="M906.666667 277.333333H117.333333a32 32 0 1 1 0-64h789.333334a32 32 0 1 1 0 64zM906.666667 810.666667H117.333333a32 32 0 1 1 0-64h789.333334a32 32 0 1 1 0 64zM673.28 534.613333l-106.666667 106.666667c-6.186667 6.293333-14.4 9.386667-22.613333 9.386667s-16.426667-3.093333-22.613333-9.386667a32 32 0 0 1 0-45.226667L573.44 544H117.333333c-17.706667 0-32-14.293333-32-32s14.293333-32 32-32h456.106667l-52.053333-52.053333a32 32 0 0 1 0-45.226667 32 32 0 0 1 45.226666 0l106.666667 106.666667a32 32 0 0 1 0 45.226666z" p-id="8757" fill="#bfbfbf"></path></svg>