<?xml version="1.0" standalone="no"?><!DOCTYPE svg PUBLIC "-//W3C//DTD SVG 1.1//EN" "http://www.w3.org/Graphics/SVG/1.1/DTD/svg11.dtd"><svg t="1611647140785" class="icon" viewBox="0 0 1024 1024" version="1.1" xmlns="http://www.w3.org/2000/svg" p-id="13988" xmlns:xlink="http://www.w3.org/1999/xlink" width="128" height="128"><defs><style type="text/css"></style></defs><path d="M810.666667 213.333333h-128a42.666667 42.666667 0 0 1 0-85.333333h170.666666a42.666667 42.666667 0 0 1 42.666667 42.666667v170.666666a42.666667 42.666667 0 0 1-85.333333 0V213.333333zM213.333333 213.333333v128a42.666667 42.666667 0 1 1-85.333333 0V170.666667a42.666667 42.666667 0 0 1 42.666667-42.666667h170.666666a42.666667 42.666667 0 1 1 0 85.333333H213.333333z m597.333334 597.333334v-128a42.666667 42.666667 0 0 1 85.333333 0v170.666666a42.666667 42.666667 0 0 1-42.666667 42.666667h-170.666666a42.666667 42.666667 0 0 1 0-85.333333h128zM213.333333 810.666667h128a42.666667 42.666667 0 0 1 0 85.333333H170.666667a42.666667 42.666667 0 0 1-42.666667-42.666667v-170.666666a42.666667 42.666667 0 0 1 85.333333 0v128z m341.333334-341.333334a42.666667 42.666667 0 0 1 0 85.333334h-42.666667a42.666667 42.666667 0 0 1-42.666667-42.666667V384a42.666667 42.666667 0 0 1 85.333334 0v85.333333z m77.994666 120.661334a42.666667 42.666667 0 0 1 60.373334 60.373333 256 256 0 0 1-362.069334 0 42.666667 42.666667 0 0 1 60.373334-60.373333 170.666667 170.666667 0 0 0 241.322666 0zM640 384a42.666667 42.666667 0 0 1 85.333333 0v42.666667a42.666667 42.666667 0 0 1-85.333333 0V384zM298.666667 384a42.666667 42.666667 0 1 1 85.333333 0v42.666667a42.666667 42.666667 0 0 1-85.333333 0V384z" p-id="13989" fill="#bfbfbf"></path></svg>