<?xml version="1.0" standalone="no"?><!DOCTYPE svg PUBLIC "-//W3C//DTD SVG 1.1//EN" "http://www.w3.org/Graphics/SVG/1.1/DTD/svg11.dtd"><svg t="1611647128404" class="icon" viewBox="0 0 1024 1024" version="1.1" xmlns="http://www.w3.org/2000/svg" p-id="13409" xmlns:xlink="http://www.w3.org/1999/xlink" width="128" height="128"><defs><style type="text/css"></style></defs><path d="M341.333333 819.029333l79.829334-49.92a42.666667 42.666667 0 0 1 29.354666-5.973333c20.138667 3.242667 40.661333 4.864 61.482667 4.864 189.568 0 341.333333-134.912 341.333333-298.666667s-151.765333-298.666667-341.333333-298.666666-341.333333 134.912-341.333333 298.666666c0 64.128 23.168 125.226667 65.706666 176.085334a42.666667 42.666667 0 1 1-65.450666 54.741333C115.797333 634.24 85.333333 553.898667 85.333333 469.333333c0-213.290667 192.085333-384 426.666667-384s426.666667 170.709333 426.666667 384-192.085333 384-426.666667 384c-19.797333 0-39.424-1.194667-58.794667-3.626666L321.28 932.181333A42.666667 42.666667 0 0 1 256 896v-142.805333a42.666667 42.666667 0 0 1 85.333333 0v65.834666z m23.68-271.530666a42.666667 42.666667 0 1 1-47.36-70.997334l128-85.333333a42.666667 42.666667 0 0 1 53.845334 5.333333l60.586666 60.586667 98.901334-65.92a42.666667 42.666667 0 0 1 47.36 70.997333l-128 85.333334a42.666667 42.666667 0 0 1-53.845334-5.333334l-60.586666-60.586666-98.901334 65.92z" p-id="13410" fill="#bfbfbf"></path></svg>