<?xml version="1.0" standalone="no"?><!DOCTYPE svg PUBLIC "-//W3C//DTD SVG 1.1//EN" "http://www.w3.org/Graphics/SVG/1.1/DTD/svg11.dtd"><svg t="1611642934267" class="icon" viewBox="0 0 1162 1024" version="1.1" xmlns="http://www.w3.org/2000/svg" p-id="2969" xmlns:xlink="http://www.w3.org/1999/xlink" width="145.25" height="128"><defs><style type="text/css"></style></defs><path d="M27.52 281.888v0.8l418.464 196.96c12 5.568 25.312 9.056 39.712 9.056s27.808-3.52 39.712-9.056l0.352 0.16L943.904 282.752v-0.8c15.68-5.696 26.784-20.288 27.2-37.536v-0.064a40.96 40.96 0 0 0-27.296-37.568l-0.288-0.096L525.28 8.992A91.584 91.584 0 0 0 485.664 0h-0.032c-14.4 0-27.648 3.424-39.712 8.992h-0.736L27.84 206.624a40.896 40.896 0 0 0-27.648 37.632v0.064c0 16.96 11.2 31.456 27.296 37.6m916.064 191.104l-81.696-38.688c412.576-174.624 312.32-126.528 211.968-78.592l-517.12 222.336a183.072 183.072 0 0 1-71.008 14.08 185.6 185.6 0 0 1-72.416-14.624l1.216 0.448c-1.984-0.736-176.8-83.008-304.992-143.648L27.808 473.024c-15.84 5.536-27.104 20.16-27.584 37.472v0.064c0 17.056 11.264 31.456 27.296 37.664v0.736L445.984 745.92c12 5.632 25.312 9.056 39.712 9.056s27.808-3.424 39.712-9.056l0.352 0.16 418.144-197.056v-0.736c15.712-5.728 26.816-20.352 27.2-37.632v-0.064a40.704 40.704 0 0 0-27.296-37.504l-0.288-0.096m0.032 217.184l-81.696-38.624c-128.16 60.48-303.168 142.912-305.152 143.648a183.072 183.072 0 0 1-71.008 14.08 185.6 185.6 0 0 1-72.416-14.624l1.216 0.448c-1.984-0.736-176.8-83.008-304.992-143.584L27.808 690.144A40.928 40.928 0 0 0 0.224 727.776v0.064c0 16.96 11.264 31.456 27.296 37.6v0.736l418.464 196.896c12 5.632 25.312 9.056 39.712 9.056s27.808-3.424 39.712-9.056l0.352 0.16 418.144-197.056v-0.736c15.68-5.696 26.784-20.288 27.2-37.536v-0.064a40.736 40.736 0 0 0-27.296-37.568l-0.288-0.096" p-id="2970" fill="#bfbfbf"></path></svg>