<?xml version="1.0" standalone="no"?><!DOCTYPE svg PUBLIC "-//W3C//DTD SVG 1.1//EN" "http://www.w3.org/Graphics/SVG/1.1/DTD/svg11.dtd"><svg t="1611647132289" class="icon" viewBox="0 0 1024 1024" version="1.1" xmlns="http://www.w3.org/2000/svg" p-id="13602" xmlns:xlink="http://www.w3.org/1999/xlink" width="128" height="128"><defs><style type="text/css"></style></defs><path d="M554.666667 512a42.666667 42.666667 0 0 1 8.533333-25.6l256-341.333333a42.666667 42.666667 0 1 1 68.266667 51.2L640 526.208V768a42.666667 42.666667 0 0 1-23.594667 38.144l-170.666666 85.333333A42.666667 42.666667 0 0 1 384 853.333333v-327.125333L136.533333 196.266667A42.666667 42.666667 0 0 1 170.666667 128h512a42.666667 42.666667 0 0 1 0 85.333333H256l204.8 273.066667a42.666667 42.666667 0 0 1 8.533333 25.6v272.298667l85.333334-42.666667V512z" p-id="13603" fill="#bfbfbf"></path></svg>