<?xml version="1.0" standalone="no"?><!DOCTYPE svg PUBLIC "-//W3C//DTD SVG 1.1//EN" "http://www.w3.org/Graphics/SVG/1.1/DTD/svg11.dtd"><svg t="1611647161237" class="icon" viewBox="0 0 1024 1024" version="1.1" xmlns="http://www.w3.org/2000/svg" p-id="15001" xmlns:xlink="http://www.w3.org/1999/xlink" width="128" height="128"><defs><style type="text/css"></style></defs><path d="M170.666667 640a42.666667 42.666667 0 0 1-85.333334 0v-128c0-104.704 37.930667-203.648 105.472-280.874667a42.666667 42.666667 0 1 1 64.213334 56.192A339.797333 339.797333 0 0 0 170.666667 512v128zM387.626667 194.048a42.666667 42.666667 0 0 1-31.146667-79.488A425.685333 425.685333 0 0 1 512 85.333333c235.648 0 426.666667 191.018667 426.666667 426.666667 0 103.509333-15.658667 181.888-49.066667 235.818667a42.666667 42.666667 0 1 1-72.533333-44.970667c23.466667-37.930667 36.266667-101.76 36.266666-190.848A341.333333 341.333333 0 0 0 387.626667 194.048z m-97.28 641.877333a42.666667 42.666667 0 1 1-68.693334-50.517333c9.6-13.098667 16.981333-27.946667 22.357334-44.544C253.653333 711.381333 256 685.098667 256 640a42.666667 42.666667 0 0 1 85.333333 0c0 53.589333-2.986667 86.826667-16.213333 127.317333a240.853333 240.853333 0 0 1-34.730667 68.608zM341.333333 512a42.666667 42.666667 0 0 1-85.333333 0 256 256 0 0 1 426.325333-191.146667 42.666667 42.666667 0 0 1-56.789333 63.701334A170.666667 170.666667 0 0 0 341.333333 512z m341.333334 0a42.666667 42.666667 0 0 1 85.333333 0c0 166.272-30.72 289.109333-94.848 368.213333a42.666667 42.666667 0 0 1-66.304-53.76C656.469333 765.269333 682.666667 660.522667 682.666667 512z m-213.205334-39.509333a42.666667 42.666667 0 0 1 85.077334-6.314667c12.16 165.034667-17.92 315.392-90.282667 450.048a42.666667 42.666667 0 1 1-75.178667-40.448c64.554667-120.021333 91.392-254.122667 80.384-403.285333z" p-id="15002" fill="#bfbfbf"></path></svg>