<?xml version="1.0" standalone="no"?><!DOCTYPE svg PUBLIC "-//W3C//DTD SVG 1.1//EN" "http://www.w3.org/Graphics/SVG/1.1/DTD/svg11.dtd"><svg t="1611647135497" class="icon" viewBox="0 0 1024 1024" version="1.1" xmlns="http://www.w3.org/2000/svg" p-id="13795" xmlns:xlink="http://www.w3.org/1999/xlink" width="128" height="128"><defs><style type="text/css"></style></defs><path d="M661.333333 422.997333L422.997333 661.333333l161.834667 161.834667a42.666667 42.666667 0 0 1-60.330667 60.330667l-384-384a42.666667 42.666667 0 0 1 60.330667-60.330667L362.666667 601.002667 601.002667 362.666667l-161.834667-161.834667a42.666667 42.666667 0 0 1 60.330667-60.330667l384 384a42.666667 42.666667 0 0 1-60.330667 60.330667L661.333333 422.997333z m119.168-222.165333a42.666667 42.666667 0 1 1 60.330667-60.330667l42.666667 42.666667a42.666667 42.666667 0 1 1-60.330667 60.330667l-42.666667-42.666667z m-640 640a42.666667 42.666667 0 0 1 60.330667-60.330667l42.666667 42.666667a42.666667 42.666667 0 0 1-60.330667 60.330667l-42.666667-42.666667z m469.333334-640a42.666667 42.666667 0 1 1 60.330666-60.330667l213.333334 213.333334a42.666667 42.666667 0 1 1-60.330667 60.330666l-213.333333-213.333333z m-469.333334 469.333333a42.666667 42.666667 0 0 1 60.330667-60.330666l213.333333 213.333333a42.666667 42.666667 0 1 1-60.330666 60.330667l-213.333334-213.333334z" p-id="13796" fill="#bfbfbf"></path></svg>