<?xml version="1.0" standalone="no"?><!DOCTYPE svg PUBLIC "-//W3C//DTD SVG 1.1//EN" "http://www.w3.org/Graphics/SVG/1.1/DTD/svg11.dtd"><svg t="1611647145764" class="icon" viewBox="0 0 1024 1024" version="1.1" xmlns="http://www.w3.org/2000/svg" p-id="14181" xmlns:xlink="http://www.w3.org/1999/xlink" width="128" height="128"><defs><style type="text/css"></style></defs><path d="M213.333333 213.333333v640a42.666667 42.666667 0 0 1-85.333333 0V170.666667a42.666667 42.666667 0 0 1 42.666667-42.666667h682.666666a42.666667 42.666667 0 0 1 36.565334 64.597333L775.125333 384l114.773334 191.402667A42.666667 42.666667 0 0 1 853.333333 640H341.333333a42.666667 42.666667 0 0 1 0-85.333333h436.650667l-89.216-148.736a42.666667 42.666667 0 0 1 0-43.861334L777.941333 213.333333H213.333333z" p-id="14182" fill="#bfbfbf"></path></svg>