<?xml version="1.0" standalone="no"?><!DOCTYPE svg PUBLIC "-//W3C//DTD SVG 1.1//EN" "http://www.w3.org/Graphics/SVG/1.1/DTD/svg11.dtd"><svg t="1611647174054" class="icon" viewBox="0 0 1024 1024" version="1.1" xmlns="http://www.w3.org/2000/svg" p-id="15580" xmlns:xlink="http://www.w3.org/1999/xlink" width="128" height="128"><defs><style type="text/css"></style></defs><path d="M270.506667 255.274667L350.506667 303.36a42.666667 42.666667 0 0 1-43.904 73.173333L179.754667 300.330667a42.666667 42.666667 0 0 1-8.234667-66.730667l93.098667-93.098667a42.666667 42.666667 0 0 1 43.648-10.325333l300.8 100.266667 89.984-89.941334A42.666667 42.666667 0 0 1 729.173333 128H853.333333a42.666667 42.666667 0 0 1 42.666667 42.666667v124.16a42.666667 42.666667 0 0 1-12.501333 30.122666L793.6 414.933333l100.266667 300.8a42.666667 42.666667 0 0 1-10.325334 43.648l-93.098666 93.098667a42.666667 42.666667 0 0 1-66.730667-8.234667l-134.826667-224.64-51.2 51.2 16.213334 81.066667a42.666667 42.666667 0 0 1-11.690667 38.528l-93.098667 93.098667a42.666667 42.666667 0 0 1-66.730666-8.234667l-87.637334-145.962667-145.962666-87.637333a42.666667 42.666667 0 0 1-8.234667-66.730667l93.098667-93.098666a42.666667 42.666667 0 0 1 38.528-11.690667l81.066666 16.213333 89.856-89.856a42.666667 42.666667 0 0 1 60.330667 60.330667l-106.026667 106.026667a42.666667 42.666667 0 0 1-38.528 11.648l-81.066666-16.213334-38.272 38.314667 108.288 64.981333a42.666667 42.666667 0 0 1 14.634666 14.634667l64.981334 108.288 38.272-38.272-16.213334-81.066667a42.666667 42.666667 0 0 1 11.690667-38.528l106.026667-106.026666a42.666667 42.666667 0 0 1 66.730666 8.234666l134.826667 224.64 35.797333-35.84-100.266666-300.8a42.666667 42.666667 0 0 1 10.282666-43.648L810.666667 277.12V213.333333h-63.786667l-96.085333 96.128a42.666667 42.666667 0 0 1-43.690667 10.282667l-300.8-100.266667-35.797333 35.84z" p-id="15581" fill="#bfbfbf"></path></svg>