<?xml version="1.0" standalone="no"?><!DOCTYPE svg PUBLIC "-//W3C//DTD SVG 1.1//EN" "http://www.w3.org/Graphics/SVG/1.1/DTD/svg11.dtd"><svg t="1611642831261" class="icon" viewBox="0 0 1024 1024" version="1.1" xmlns="http://www.w3.org/2000/svg" p-id="7785" xmlns:xlink="http://www.w3.org/1999/xlink" width="128" height="128"><defs><style type="text/css"></style></defs><path d="M512 85.333333C300.266667 85.333333 128 255.466667 128 464.533333c0 274.986667 354.133333 462.613333 369.173333 470.506667 4.693333 2.453333 9.706667 3.626667 14.826667 3.626667s10.133333-1.173333 14.826667-3.626667C541.866667 927.146667 896 739.52 896 464.533333 896 255.466667 723.733333 85.333333 512 85.333333z m0 64c164.48 0 300.373333 122.773333 317.973333 280.213334-34.56 23.786667-90.986667 25.28-128.533333 2.133333-63.893333-39.466667-152.213333-34.24-206.826667 11.626667-0.853333 0.533333-1.6 1.28-2.346666 1.92-33.173333 29.013333-95.573333 32.426667-136.106667 7.36-47.68-29.44-111.146667-33.6-162.986667-14.186667C206.613333 276.693333 344.533333 149.333333 512 149.333333z m0 720.64c-60.266667-34.773333-284.586667-176-316.266667-361.813333 34.773333-22.72 89.92-23.786667 126.826667-1.066667C351.146667 524.8 385.386667 533.333333 419.306667 533.333333c41.6 0 82.773333-12.906667 112.746666-38.08 0.853333-0.64 1.6-1.28 2.346667-1.92 33.066667-29.013333 92.906667-32.106667 133.44-7.146666 28.373333 17.493333 62.4 26.026667 96.106667 26.026666 22.506667 0 44.906667-3.733333 65.386666-11.306666-26.986667 189.44-256.32 333.866667-317.333333 369.066666z" p-id="7786" fill="#bfbfbf"></path></svg>