<?xml version="1.0" standalone="no"?><!DOCTYPE svg PUBLIC "-//W3C//DTD SVG 1.1//EN" "http://www.w3.org/Graphics/SVG/1.1/DTD/svg11.dtd"><svg t="1611647154185" class="icon" viewBox="0 0 1024 1024" version="1.1" xmlns="http://www.w3.org/2000/svg" p-id="14615" xmlns:xlink="http://www.w3.org/1999/xlink" width="128" height="128"><defs><style type="text/css"></style></defs><path d="M810.666667 426.666667H341.333333a42.666667 42.666667 0 1 1 0-85.333334h512a42.666667 42.666667 0 0 1 42.666667 42.666667v469.333333a42.666667 42.666667 0 0 1-42.666667 42.666667H170.666667a42.666667 42.666667 0 0 1-42.666667-42.666667V170.666667a42.666667 42.666667 0 0 1 42.666667-42.666667h341.333333a42.666667 42.666667 0 0 1 30.165333 12.501333l85.333334 85.333334a42.666667 42.666667 0 1 1-60.330667 60.330666L494.336 213.333333H213.333333v597.333334h597.333334v-384z" p-id="14616" fill="#bfbfbf"></path></svg>