<?xml version="1.0" standalone="no"?><!DOCTYPE svg PUBLIC "-//W3C//DTD SVG 1.1//EN" "http://www.w3.org/Graphics/SVG/1.1/DTD/svg11.dtd"><svg t="1611647177562" class="icon" viewBox="0 0 1024 1024" version="1.1" xmlns="http://www.w3.org/2000/svg" p-id="15773" xmlns:xlink="http://www.w3.org/1999/xlink" width="128" height="128"><defs><style type="text/css"></style></defs><path d="M646.528 597.333333l15.36-92.330666a42.666667 42.666667 0 1 1 84.181333 13.994666l-21.333333 128A42.666667 42.666667 0 0 1 682.666667 682.666667h-195.669334l-243.498666 243.498666C216.618667 953.045333 170.666667 934.016 170.666667 896V128a42.666667 42.666667 0 0 1 42.666666-42.666667h597.333334a42.666667 42.666667 0 0 1 41.301333 53.418667l-66.602667 256a42.666667 42.666667 0 0 1-41.301333 31.914667H469.333333a42.666667 42.666667 0 0 1 0-85.333334h241.749334l44.373333-170.666666H256v622.336l183.168-183.168A42.666667 42.666667 0 0 1 469.333333 597.333333h177.194667z" p-id="15774" fill="#bfbfbf"></path></svg>