<?xml version="1.0" standalone="no"?><!DOCTYPE svg PUBLIC "-//W3C//DTD SVG 1.1//EN" "http://www.w3.org/Graphics/SVG/1.1/DTD/svg11.dtd"><svg t="1611647165810" class="icon" viewBox="0 0 1024 1024" version="1.1" xmlns="http://www.w3.org/2000/svg" p-id="15194" xmlns:xlink="http://www.w3.org/1999/xlink" width="128" height="128"><defs><style type="text/css"></style></defs><path d="M256 853.333333a42.666667 42.666667 0 0 1-85.333333 0V426.666667a341.333333 341.333333 0 1 1 682.666666 0v426.666666a42.666667 42.666667 0 0 1-85.333333 0V426.666667a256 256 0 1 0-512 0v426.666666z m149.333333-426.666666a64 64 0 1 1 0-128 64 64 0 0 1 0 128z m213.333334 0a64 64 0 1 1 0-128 64 64 0 0 1 0 128z m-258.346667 163.498666a42.666667 42.666667 0 0 1 47.36-70.997333c35.968 23.978667 70.528 35.498667 104.32 35.498667 33.792 0 68.352-11.52 104.32-35.498667a42.666667 42.666667 0 1 1 47.36 70.997333C614.314667 623.061333 563.541333 640 512 640c-51.541333 0-102.314667-16.938667-151.68-49.834667zM405.333333 896a42.666667 42.666667 0 0 1-85.333333 0v-85.333333a42.666667 42.666667 0 0 1 85.333333 0v85.333333z m149.333334-42.666667a42.666667 42.666667 0 0 1-85.333334 0v-85.333333a42.666667 42.666667 0 0 1 85.333334 0v85.333333z m149.333333 42.666667a42.666667 42.666667 0 0 1-85.333333 0v-85.333333a42.666667 42.666667 0 0 1 85.333333 0v85.333333z" p-id="15195" fill="#bfbfbf"></path></svg>