<?xml version="1.0" standalone="no"?><!DOCTYPE svg PUBLIC "-//W3C//DTD SVG 1.1//EN" "http://www.w3.org/Graphics/SVG/1.1/DTD/svg11.dtd"><svg t="1611642669375" class="icon" viewBox="0 0 1024 1024" version="1.1" xmlns="http://www.w3.org/2000/svg" p-id="2207" xmlns:xlink="http://www.w3.org/1999/xlink" width="128" height="128"><defs><style type="text/css"></style></defs><path d="M512 544c-4.896 0-9.802667-1.12-14.314667-3.370667l-352-176a32.032 32.032 0 0 1 0-57.248l352-176a31.968 31.968 0 0 1 28.629334 0l352 176a32 32 0 0 1 0 57.237334l-352 176A31.893333 31.893333 0 0 1 512 544zM231.552 336L512 476.224 792.448 336 512 195.776 231.552 336z" p-id="2208" fill="#bfbfbf"></path><path d="M512 720c-4.896 0-9.802667-1.12-14.314667-3.370667l-352-176a31.989333 31.989333 0 1 1 28.629334-57.237333L512 652.224l337.685333-168.842667a32 32 0 1 1 28.618667 57.237334l-352 176A31.818667 31.818667 0 0 1 512 720z" p-id="2209" fill="#bfbfbf"></path><path d="M512 896c-4.896 0-9.802667-1.12-14.314667-3.370667l-352-176a31.989333 31.989333 0 0 1-14.304-42.933333 32.021333 32.021333 0 0 1 42.933334-14.314667L512 828.224l337.685333-168.842667a32.010667 32.010667 0 0 1 28.618667 57.248l-352 176A31.946667 31.946667 0 0 1 512 896z" p-id="2210" fill="#bfbfbf"></path></svg>