<?xml version="1.0" standalone="no"?><!DOCTYPE svg PUBLIC "-//W3C//DTD SVG 1.1//EN" "http://www.w3.org/Graphics/SVG/1.1/DTD/svg11.dtd"><svg t="1611647187008" class="icon" viewBox="0 0 1024 1024" version="1.1" xmlns="http://www.w3.org/2000/svg" p-id="16352" xmlns:xlink="http://www.w3.org/1999/xlink" width="128" height="128"><defs><style type="text/css"></style></defs><path d="M635.477333 597.333333a799.061333 799.061333 0 0 0 0-170.666666H388.522667A799.061333 799.061333 0 0 0 384 512v42.666667a42.666667 42.666667 0 0 1-85.333333 0v-42.666667c0-29.141333 1.365333-57.728 3.968-85.333333H181.418667A341.930667 341.930667 0 0 0 170.666667 512c0 63.061333 17.066667 123.434667 48.768 175.957333a128 128 0 1 1-69.12 50.474667A424.874667 424.874667 0 0 1 85.333333 512C85.333333 276.352 276.352 85.333333 512 85.333333s426.666667 191.018667 426.666667 426.666667-191.018667 426.666667-426.666667 426.666667a42.666667 42.666667 0 0 1 0-85.333334c41.216 0 84.906667-67.968 109.098667-170.666666H469.333333a42.666667 42.666667 0 0 1 0-85.333334h166.144z m207.104 0a343.338667 343.338667 0 0 0 0-170.666666h-121.173333a925.952 925.952 0 0 1-0.042667 170.666666h121.216z m-34.901333 85.333334h-98.986667c-10.453333 50.858667-25.6 96.725333-44.8 135.082666A342.869333 342.869333 0 0 0 807.68 682.666667z m-186.581333-341.333334C596.906667 238.634667 553.216 170.666667 512 170.666667s-84.906667 67.968-109.098667 170.666666h218.197334zM315.264 341.333333c10.453333-50.858667 25.6-96.725333 44.8-135.082666A342.869333 342.869333 0 0 0 216.32 341.333333h98.986667z m492.373333 0a342.869333 342.869333 0 0 0-143.701333-135.082666c19.2 38.4 34.346667 84.224 44.8 135.082666h98.944zM256 853.333333a42.666667 42.666667 0 1 0 0-85.333333 42.666667 42.666667 0 0 0 0 85.333333z" p-id="16353" fill="#bfbfbf"></path></svg>