<?xml version="1.0" standalone="no"?><!DOCTYPE svg PUBLIC "-//W3C//DTD SVG 1.1//EN" "http://www.w3.org/Graphics/SVG/1.1/DTD/svg11.dtd"><svg t="1611647180842" class="icon" viewBox="0 0 1024 1024" version="1.1" xmlns="http://www.w3.org/2000/svg" p-id="15966" xmlns:xlink="http://www.w3.org/1999/xlink" width="128" height="128"><defs><style type="text/css"></style></defs><path d="M554.666667 682.666667h-128a42.666667 42.666667 0 0 1-23.68-7.168l-128-85.333334A42.666667 42.666667 0 0 1 256 554.666667v-62.506667L146.986667 419.498667A42.666667 42.666667 0 0 1 128 384V213.333333a42.666667 42.666667 0 0 1 42.666667-42.666666h85.333333a42.666667 42.666667 0 0 1 42.666667-42.666667h426.666666a42.666667 42.666667 0 0 1 42.666667 42.666667h85.333333a42.666667 42.666667 0 0 1 42.666667 42.666666v170.666667a42.666667 42.666667 0 0 1-18.986667 35.498667L768 492.16V554.666667a42.666667 42.666667 0 0 1-18.986667 35.498666L640 662.826667v36.138666l61.738667 30.890667A42.666667 42.666667 0 0 1 725.333333 768v85.333333a42.666667 42.666667 0 0 1-42.666666 42.666667H341.333333a42.666667 42.666667 0 0 1-42.666666-42.666667v-85.333333a42.666667 42.666667 0 0 1 85.333333 0v42.666667h256v-16.298667l-61.738667-30.890667A42.666667 42.666667 0 0 1 554.666667 725.333333v-42.666666z m128-469.333334H341.333333v85.333334a42.666667 42.666667 0 1 1-85.333333 0V256H213.333333v105.173333l108.458667 72.277334A42.666667 42.666667 0 0 1 341.333333 469.333333v62.506667L439.594667 597.333333h144.810666L682.666667 531.84V213.333333z m128 42.666667h-42.666667v133.589333l42.666667-28.416V256z" p-id="15967" fill="#bfbfbf"></path></svg>