<?xml version="1.0" standalone="no"?><!DOCTYPE svg PUBLIC "-//W3C//DTD SVG 1.1//EN" "http://www.w3.org/Graphics/SVG/1.1/DTD/svg11.dtd"><svg t="1611647183930" class="icon" viewBox="0 0 1024 1024" version="1.1" xmlns="http://www.w3.org/2000/svg" p-id="16159" xmlns:xlink="http://www.w3.org/1999/xlink" width="128" height="128"><defs><style type="text/css"></style></defs><path d="M853.333333 768V341.333333a42.666667 42.666667 0 0 1 85.333334 0v469.333334a42.666667 42.666667 0 0 1-42.666667 42.666666h-256a42.666667 42.666667 0 0 1-30.165333-12.501333l-42.666667-42.666667A42.666667 42.666667 0 0 1 554.666667 768a42.666667 42.666667 0 0 0-85.333334 0 42.666667 42.666667 0 0 1-12.501333 30.165333l-42.666667 42.666667A42.666667 42.666667 0 0 1 384 853.333333H128a42.666667 42.666667 0 0 1-42.666667-42.666666V341.333333a42.666667 42.666667 0 0 1 42.666667-42.666666h640a42.666667 42.666667 0 0 1 0 85.333333H170.666667v384h195.669333l19.072-19.072a128 128 0 0 1 253.184 0l19.072 19.072H853.333333zM320 640a106.666667 106.666667 0 1 1 0-213.333333 106.666667 106.666667 0 0 1 0 213.333333z m0-85.333333a21.333333 21.333333 0 1 0 0-42.666667 21.333333 21.333333 0 0 0 0 42.666667z m384 85.333333a106.666667 106.666667 0 1 1 0-213.333333 106.666667 106.666667 0 0 1 0 213.333333z m0-85.333333a21.333333 21.333333 0 1 0 0-42.666667 21.333333 21.333333 0 0 0 0 42.666667zM256 256a42.666667 42.666667 0 1 1 0-85.333333h512a42.666667 42.666667 0 0 1 0 85.333333H256z" p-id="16160" fill="#bfbfbf"></path></svg>