<?xml version="1.0" standalone="no"?><!DOCTYPE svg PUBLIC "-//W3C//DTD SVG 1.1//EN" "http://www.w3.org/Graphics/SVG/1.1/DTD/svg11.dtd"><svg t="1611647193635" class="icon" viewBox="0 0 1024 1024" version="1.1" xmlns="http://www.w3.org/2000/svg" p-id="16738" xmlns:xlink="http://www.w3.org/1999/xlink" width="128" height="128"><defs><style type="text/css"></style></defs><path d="M256 561.92a128.042667 128.042667 0 1 1-85.333333 0V469.333333a42.666667 42.666667 0 0 1 29.184-40.490666l114.090666-38.016 162.56-243.84A42.666667 42.666667 0 0 1 512 128h122.666667a42.666667 42.666667 0 0 1 42.112 49.664L642.389333 384H853.333333a42.666667 42.666667 0 0 1 42.666667 42.666667v213.333333a42.666667 42.666667 0 0 1-3.072 15.829333l-85.333333 213.333334A42.666667 42.666667 0 0 1 768 896H384a42.666667 42.666667 0 0 1 0-85.333333h355.114667L810.666667 631.765333V469.333333h-218.666667a42.666667 42.666667 0 0 1-42.069333-49.664L584.32 213.333333h-49.493333l-157.994667 237.013334a42.666667 42.666667 0 0 1-22.016 16.810666L256 500.053333v61.866667zM213.333333 725.333333a42.666667 42.666667 0 1 0 0-85.333333 42.666667 42.666667 0 0 0 0 85.333333z" p-id="16739" fill="#bfbfbf"></path></svg>