<?xml version="1.0" standalone="no"?><!DOCTYPE svg PUBLIC "-//W3C//DTD SVG 1.1//EN" "http://www.w3.org/Graphics/SVG/1.1/DTD/svg11.dtd"><svg t="1611647197032" class="icon" viewBox="0 0 1024 1024" version="1.1" xmlns="http://www.w3.org/2000/svg" p-id="16931" xmlns:xlink="http://www.w3.org/1999/xlink" width="128" height="128"><defs><style type="text/css"></style></defs><path d="M810.666667 640v128h42.666666v-128h-42.666666zM173.312 554.666667H256a42.666667 42.666667 0 0 1 42.666667 42.666666v213.333334a42.666667 42.666667 0 0 1-42.666667 42.666666H128a42.666667 42.666667 0 0 1-42.666667-42.666666v-213.333334C85.333333 361.685333 276.352 170.666667 512 170.666667c176.896 0 333.482667 108.672 397.184 270.506666a42.666667 42.666667 0 1 1-79.402667 31.274667A341.418667 341.418667 0 0 0 173.312 554.666667zM768 554.666667h128a42.666667 42.666667 0 0 1 42.666667 42.666666v213.333334a42.666667 42.666667 0 0 1-42.666667 42.666666h-128a42.666667 42.666667 0 0 1-42.666667-42.666666v-213.333334a42.666667 42.666667 0 0 1 42.666667-42.666666zM170.666667 640v128h42.666666v-128H170.666667z" p-id="16932" fill="#bfbfbf"></path></svg>