<?xml version="1.0" standalone="no"?><!DOCTYPE svg PUBLIC "-//W3C//DTD SVG 1.1//EN" "http://www.w3.org/Graphics/SVG/1.1/DTD/svg11.dtd"><svg t="1611647215885" class="icon" viewBox="0 0 1024 1024" version="1.1" xmlns="http://www.w3.org/2000/svg" p-id="17317" xmlns:xlink="http://www.w3.org/1999/xlink" width="128" height="128"><defs><style type="text/css"></style></defs><path d="M221.781333 597.333333h169.514667a42.666667 42.666667 0 0 1 40.234667 28.458667 85.376 85.376 0 0 0 160.938666 0A42.666667 42.666667 0 0 1 632.746667 597.333333h71.253333a42.666667 42.666667 0 0 1 0 85.333334h-44.16a170.666667 170.666667 0 0 1-295.68 0H170.666667a42.666667 42.666667 0 0 1-41.984-50.304l85.333333-469.333334A42.666667 42.666667 0 0 1 256 128h512a42.666667 42.666667 0 0 1 41.984 35.029333l85.333333 469.333334L896 640v213.333333a42.666667 42.666667 0 0 1-42.666667 42.666667H170.666667a42.666667 42.666667 0 0 1-42.666667-42.666667v-85.333333a42.666667 42.666667 0 0 1 85.333333 0v42.666667h597.333334v-166.826667L732.373333 213.333333H291.626667l-69.845334 384z" p-id="17318" fill="#bfbfbf"></path></svg>