<?xml version="1.0" standalone="no"?><!DOCTYPE svg PUBLIC "-//W3C//DTD SVG 1.1//EN" "http://www.w3.org/Graphics/SVG/1.1/DTD/svg11.dtd"><svg t="1611647236928" class="icon" viewBox="0 0 1024 1024" version="1.1" xmlns="http://www.w3.org/2000/svg" p-id="18475" xmlns:xlink="http://www.w3.org/1999/xlink" width="128" height="128"><defs><style type="text/css"></style></defs><path d="M441.514667 659.84C464.128 646.826667 487.68 640 512 640c41.002667 0 79.658667 19.328 115.498667 55.168a42.666667 42.666667 0 0 1 11.136 40.832c0.896 3.413333 1.365333 6.997333 1.365333 10.666667a64 64 0 1 0 64-64 42.666667 42.666667 0 0 1 0-85.333334 149.333333 149.333333 0 1 1-149.248 146.858667C538.837333 731.136 524.672 725.333333 512 725.333333c-12.672 0-26.794667 5.802667-42.666667 18.773334v2.56a149.333333 149.333333 0 1 1-27.818666-86.826667zM853.333333 512H426.666667a42.666667 42.666667 0 0 1 0-85.333333h249.472l-30.464-213.333334H378.325333l-37.333333 261.418667a42.410667 42.410667 0 0 1-3.2 11.648 42.752 42.752 0 0 1-39.765333 25.6H170.666667a42.666667 42.666667 0 0 1 0-85.333333h91.008l37.418666-262.016A42.666667 42.666667 0 0 1 341.333333 128h341.333334a42.666667 42.666667 0 0 1 42.24 36.650667L762.325333 426.666667H853.333333a42.666667 42.666667 0 0 1 0 85.333333zM320 810.666667a64 64 0 1 0 0-128 64 64 0 0 0 0 128z" p-id="18476" fill="#bfbfbf"></path></svg>