<?xml version="1.0" standalone="no"?><!DOCTYPE svg PUBLIC "-//W3C//DTD SVG 1.1//EN" "http://www.w3.org/Graphics/SVG/1.1/DTD/svg11.dtd"><svg t="1611647289113" class="icon" viewBox="0 0 1024 1024" version="1.1" xmlns="http://www.w3.org/2000/svg" p-id="20839" xmlns:xlink="http://www.w3.org/1999/xlink" width="128" height="128"><defs><style type="text/css"></style></defs><path d="M853.333333 512a341.333333 341.333333 0 1 0-544.341333 274.432 42.666667 42.666667 0 1 1-50.773333 68.565333A426.026667 426.026667 0 0 1 85.333333 512C85.333333 276.352 276.352 85.333333 512 85.333333s426.666667 191.018667 426.666667 426.666667-191.018667 426.666667-426.666667 426.666667a42.666667 42.666667 0 0 1-42.666667-42.666667v-85.333333a42.666667 42.666667 0 0 1 85.333334 0v40.021333A341.376 341.376 0 0 0 853.333333 512z m-426.666666-85.333333a42.666667 42.666667 0 0 1-85.333334 0 170.666667 170.666667 0 1 1 293.973334 118.016c-13.226667 13.781333-31.146667 24.746667-53.845334 33.834666a42.666667 42.666667 0 0 0-26.794666 39.594667V661.333333a42.666667 42.666667 0 1 1-85.333334 0v-43.221333a128 128 0 0 1 80.341334-118.784c12.330667-4.949333 20.266667-9.813333 23.978666-13.653333A85.333333 85.333333 0 1 0 426.666667 426.666667z" p-id="20840" fill="#bfbfbf"></path></svg>