<?xml version="1.0" standalone="no"?><!DOCTYPE svg PUBLIC "-//W3C//DTD SVG 1.1//EN" "http://www.w3.org/Graphics/SVG/1.1/DTD/svg11.dtd"><svg t="1611647230079" class="icon" viewBox="0 0 1024 1024" version="1.1" xmlns="http://www.w3.org/2000/svg" p-id="18089" xmlns:xlink="http://www.w3.org/1999/xlink" width="128" height="128"><defs><style type="text/css"></style></defs><path d="M512 810.666667a42.666667 42.666667 0 0 1 0 85.333333H341.333333a213.333333 213.333333 0 0 1-213.333333-213.333333V341.333333a213.333333 213.333333 0 0 1 213.333333-213.333333h341.333334a213.333333 213.333333 0 0 1 213.333333 213.333333v341.333334a213.333333 213.333333 0 0 1-213.333333 213.333333 42.666667 42.666667 0 0 1 0-85.333333 128 128 0 0 0 128-128V341.333333a128 128 0 0 0-128-128H341.333333a128 128 0 0 0-128 128v341.333334a128 128 0 0 0 128 128h170.666667z m0-106.666667a192 192 0 1 1 0-384 192 192 0 0 1 0 384z m0-85.333333a106.666667 106.666667 0 1 0 0-213.333334 106.666667 106.666667 0 0 0 0 213.333334z m192-256a42.666667 42.666667 0 1 1 0-85.333334 42.666667 42.666667 0 0 1 0 85.333334z" p-id="18090" fill="#bfbfbf"></path></svg>