<?xml version="1.0" standalone="no"?><!DOCTYPE svg PUBLIC "-//W3C//DTD SVG 1.1//EN" "http://www.w3.org/Graphics/SVG/1.1/DTD/svg11.dtd"><svg t="1611647226856" class="icon" viewBox="0 0 1024 1024" version="1.1" xmlns="http://www.w3.org/2000/svg" p-id="17896" xmlns:xlink="http://www.w3.org/1999/xlink" width="128" height="128"><defs><style type="text/css"></style></defs><path d="M469.333333 421.290667A170.752 170.752 0 0 1 512 85.333333a170.666667 170.666667 0 0 1 42.666667 335.957334V640h256a42.666667 42.666667 0 0 1 42.666666 42.666667v213.333333a42.666667 42.666667 0 0 1-42.666666 42.666667H213.333333a42.666667 42.666667 0 0 1-42.666666-42.666667v-213.333333a42.666667 42.666667 0 0 1 42.666666-42.666667h128a42.666667 42.666667 0 0 1 0 85.333333H256v128h512v-128h-256a42.666667 42.666667 0 0 1-42.666667-42.666666V421.290667zM512 341.333333a85.333333 85.333333 0 1 0 0-170.666666 85.333333 85.333333 0 0 0 0 170.666666z" p-id="17897" fill="#bfbfbf"></path></svg>