<?xml version="1.0" standalone="no"?><!DOCTYPE svg PUBLIC "-//W3C//DTD SVG 1.1//EN" "http://www.w3.org/Graphics/SVG/1.1/DTD/svg11.dtd"><svg t="1611647233606" class="icon" viewBox="0 0 1024 1024" version="1.1" xmlns="http://www.w3.org/2000/svg" p-id="18282" xmlns:xlink="http://www.w3.org/1999/xlink" width="128" height="128"><defs><style type="text/css"></style></defs><path d="M853.333333 384h-213.333333a42.666667 42.666667 0 0 1 0-85.333333h256a42.666667 42.666667 0 0 1 42.666667 42.666666v469.333334a42.666667 42.666667 0 0 1-42.666667 42.666666H128a42.666667 42.666667 0 0 1-42.666667-42.666666V341.333333a42.666667 42.666667 0 0 1 42.666667-42.666666h341.333333V213.333333a42.666667 42.666667 0 0 1 85.333334 0v128a42.666667 42.666667 0 0 1-42.666667 42.666667H170.666667v384h682.666666V384zM298.666667 682.666667a42.666667 42.666667 0 0 1 0-85.333334h426.666666a42.666667 42.666667 0 0 1 0 85.333334H298.666667z m0-128a42.666667 42.666667 0 0 1 0-85.333334h42.666666a42.666667 42.666667 0 0 1 0 85.333334H298.666667z m170.666666 0a42.666667 42.666667 0 0 1 0-85.333334h42.666667a42.666667 42.666667 0 0 1 0 85.333334h-42.666667z m170.666667 0a42.666667 42.666667 0 0 1 0-85.333334h85.333333a42.666667 42.666667 0 0 1 0 85.333334h-85.333333z" p-id="18283" fill="#bfbfbf"></path></svg>