<?xml version="1.0" standalone="no"?><!DOCTYPE svg PUBLIC "-//W3C//DTD SVG 1.1//EN" "http://www.w3.org/Graphics/SVG/1.1/DTD/svg11.dtd"><svg t="1611647242703" class="icon" viewBox="0 0 1024 1024" version="1.1" xmlns="http://www.w3.org/2000/svg" p-id="18668" xmlns:xlink="http://www.w3.org/1999/xlink" width="128" height="128"><defs><style type="text/css"></style></defs><path d="M597.333333 605.738667a42.666667 42.666667 0 0 1 21.333334-36.906667 213.333333 213.333333 0 1 0-213.290667 0 42.666667 42.666667 0 1 1-42.752 73.813333 298.666667 298.666667 0 1 1 320-13.568L682.666667 661.333333a42.666667 42.666667 0 0 1-29.184 40.490667l-256 85.333333a42.666667 42.666667 0 1 1-26.965334-80.981333L597.333333 630.613333v-24.832z m29.184 164.437333a42.666667 42.666667 0 1 1 26.965334 80.981333l-256 85.333334a42.666667 42.666667 0 1 1-26.965334-80.981334l256-85.333333z" p-id="18669" fill="#bfbfbf"></path></svg>