<?xml version="1.0" standalone="no"?><!DOCTYPE svg PUBLIC "-//W3C//DTD SVG 1.1//EN" "http://www.w3.org/Graphics/SVG/1.1/DTD/svg11.dtd"><svg t="1611642862544" class="icon" viewBox="0 0 1024 1024" version="1.1" xmlns="http://www.w3.org/2000/svg" p-id="9339" xmlns:xlink="http://www.w3.org/1999/xlink" width="128" height="128"><defs><style type="text/css"></style></defs><path d="M512 85.333333c-235.306667 0-426.666667 191.36-426.666667 426.666667s191.36 426.666667 426.666667 426.666667 426.666667-191.36 426.666667-426.666667-191.36-426.666667-426.666667-426.666667z m0 789.333334c-148.16 0-275.733333-89.28-331.946667-216.746667 38.613333-23.36 99.84-24.426667 140.8-0.96 30.08 17.28 66.133333 25.706667 101.973334 25.706667 3.626667 0 7.253333-0.106667 10.88-0.213334h0.32c3.946667-0.213333 7.786667-0.533333 11.626666-0.96h0.106667c35.946667-3.626667 70.186667-15.893333 96.32-36.373333 0.746667-0.533333 1.493333-1.066667 2.24-1.706667 36.693333-29.866667 103.253333-33.173333 148.373333-7.36 29.973333 17.066667 65.706667 25.493333 101.333334 25.493334 17.28 0 34.453333-2.026667 50.986666-5.866667C789.226667 784.426667 661.013333 874.666667 512 874.666667z m212.48-294.186667c-67.52-38.613333-160.746667-33.493333-218.346667 11.626667-0.746667 0.533333-1.493333 1.066667-2.24 1.706666-9.706667 7.786667-21.546667 13.866667-34.56 18.026667V490.666667h117.333334c17.706667 0 32-14.293333 32-32s-14.293333-32-32-32H469.333333v-85.333334h117.333334c17.706667 0 32-14.293333 32-32s-14.293333-32-32-32H469.333333v-10.666666c0-17.706667-14.293333-32-32-32s-32 14.293333-32 32v351.146666c-18.88-2.133333-37.226667-7.573333-52.693333-16.426666-57.066667-32.64-135.68-33.493333-193.386667-4.906667-6.506667-27.093333-9.92-55.36-9.92-84.48 0-200 162.666667-362.666667 362.666667-362.666667s362.666667 162.666667 362.666667 362.666667c0 22.293333-2.026667 44.16-5.866667 65.386667-38.293333 25.386667-102.08 27.306667-144.32 3.093333z" p-id="9340" fill="#bfbfbf"></path><path d="M445.653333 681.493333c-2.666667 0.746667-5.44 1.173333-8.32 1.173334-1.066667 0-2.24-0.106667-3.306666-0.213334 3.946667-0.213333 7.786667-0.533333 11.626666-0.96z" p-id="9341" fill="#bfbfbf"></path></svg>