<?xml version="1.0" standalone="no"?><!DOCTYPE svg PUBLIC "-//W3C//DTD SVG 1.1//EN" "http://www.w3.org/Graphics/SVG/1.1/DTD/svg11.dtd"><svg t="1611647250280" class="icon" viewBox="0 0 1024 1024" version="1.1" xmlns="http://www.w3.org/2000/svg" p-id="19054" xmlns:xlink="http://www.w3.org/1999/xlink" width="128" height="128"><defs><style type="text/css"></style></defs><path d="M549.205333 782.250667a1027.157333 1027.157333 0 0 0 126.72-94.122667c113.237333-99.114667 179.2-205.994667 177.365334-314.88a164.224 164.224 0 0 0-46.72-112.554667A155.733333 155.733333 0 0 0 694.613333 213.333333c-80.725333 0.128-141.525333 46.250667-186.325333 145.536a42.666667 42.666667 0 1 1-77.824-35.072C488.149333 195.925333 577.450667 128.213333 694.4 128a241.066667 241.066667 0 0 1 173.141333 72.96A249.514667 249.514667 0 0 1 938.666667 371.84c2.346667 139.221333-76.245333 266.538667-206.506667 380.586667a1111.381333 1111.381333 0 0 1-200.704 138.922666 42.666667 42.666667 0 0 1-38.826667 0c-3.541333-1.792-9.728-5.12-18.218666-9.898666a1108.992 1108.992 0 0 1-184.32-130.688c-129.194667-113.621333-206.976-240.426667-204.672-378.88A249.514667 249.514667 0 0 1 156.458667 200.96 241.066667 241.066667 0 0 1 329.6 128a261.034667 261.034667 0 0 1 92.842667 16.64 42.666667 42.666667 0 0 1-30.208 79.786667A176.512 176.512 0 0 0 329.386667 213.333333a155.733333 155.733333 0 0 0-112 47.36A164.224 164.224 0 0 0 170.666667 373.248c-1.834667 108.288 63.445333 214.656 175.701333 313.429333A1024.810667 1024.810667 0 0 0 512 804.650667c11.349333-6.485333 23.850667-13.994667 37.205333-22.4z" p-id="19055" fill="#bfbfbf"></path></svg>