<?xml version="1.0" standalone="no"?><!DOCTYPE svg PUBLIC "-//W3C//DTD SVG 1.1//EN" "http://www.w3.org/Graphics/SVG/1.1/DTD/svg11.dtd"><svg t="1611642858970" class="icon" viewBox="0 0 1024 1024" version="1.1" xmlns="http://www.w3.org/2000/svg" p-id="9145" xmlns:xlink="http://www.w3.org/1999/xlink" width="128" height="128"><defs><style type="text/css"></style></defs><path d="M821.333333 128H202.666667c-17.706667 0-32 14.293333-32 32v704c0 17.706667 14.293333 32 32 32h618.666666c17.706667 0 32-14.293333 32-32v-704c0-17.706667-14.293333-32-32-32z m-32 704H234.666667v-640h554.666666v640z" p-id="9146" fill="#bfbfbf"></path><path d="M682.666667 330.666667v192c0 17.706667-14.293333 32-32 32s-32-14.293333-32-32V412.16l-82.56 88.853333-0.64 0.746667c-0.746667 0.853333-1.6 1.706667-2.453334 2.346667-1.813333 1.6-3.733333 2.986667-5.76 3.946666a7.466667 7.466667 0 0 1-1.813333 0.96c-1.28 0.64-2.666667 1.066667-3.946667 1.493334-1.173333 0.426667-2.453333 0.746667-3.626666 0.96-1.92 0.32-3.946667 0.533333-5.866667 0.533333-2.24 0-4.48-0.213333-6.72-0.746667-0.96-0.213333-1.92-0.426667-2.773333-0.746666a28.32 28.32 0 0 1-9.066667-4.48c-0.853333-0.533333-1.706667-1.173333-2.453333-1.92-0.213333-0.213333-0.533333-0.426667-0.746667-0.64-0.853333-0.746667-1.706667-1.6-2.346667-2.453334L405.333333 412.16V522.666667c0 17.706667-14.293333 32-32 32s-32-14.293333-32-32V330.666667c0-8.533333 3.413333-17.173333 10.24-23.466667 0.426667-0.426667 0.96-0.853333 1.386667-1.173333 0.64-0.533333 1.173333-0.96 1.813333-1.386667 1.173333-0.853333 2.346667-1.6 3.52-2.24 0.853333-0.426667 1.706667-0.853333 2.56-1.173333 0.96-0.426667 1.92-0.746667 2.986667-1.066667 0.853333-0.32 1.813333-0.533333 2.666667-0.746667 1.173333-0.32 2.346667-0.426667 3.52-0.533333 1.066667-0.106667 2.133333-0.213333 3.2-0.213333 8.64 0 17.28 3.413333 23.573333 10.24L512 432.96 627.2 308.906667c2.24-2.346667 4.693333-4.373333 7.573333-5.973334 0.746667-0.426667 1.493333-0.853333 2.346667-1.173333 2.133333-1.066667 4.48-1.92 6.826667-2.346667 0.853333-0.213333 1.813333-0.426667 2.773333-0.426666 1.28-0.213333 2.666667-0.32 3.946667-0.32 5.546667 0 10.773333 1.386667 15.253333 3.84 1.173333 0.64 2.346667 1.28 3.306667 2.133333 4.053333 2.773333 7.36 6.613333 9.706666 10.986667 0.426667 0.853333 0.853333 1.706667 1.173334 2.56 0.426667 0.96 0.746667 1.92 1.066666 2.986666 0.32 0.746667 0.533333 1.493333 0.64 2.24 0.213333 0.853333 0.426667 1.706667 0.426667 2.666667 0.32 1.493333 0.426667 2.986667 0.426667 4.586667zM650.666667 704H373.333333a32 32 0 1 1 0-64h277.333334a32 32 0 1 1 0 64z" p-id="9147" fill="#bfbfbf"></path></svg>