<?xml version="1.0" standalone="no"?><!DOCTYPE svg PUBLIC "-//W3C//DTD SVG 1.1//EN" "http://www.w3.org/Graphics/SVG/1.1/DTD/svg11.dtd"><svg t="1611642650948" class="icon" viewBox="0 0 1024 1024" version="1.1" xmlns="http://www.w3.org/2000/svg" p-id="1383" xmlns:xlink="http://www.w3.org/1999/xlink" width="128" height="128"><defs><style type="text/css"></style></defs><path d="M725.333333 597.333333c-4.053333 0-8.106667 0.106667-12.053333 0.426667L646.506667 464.213333C694.613333 425.066667 725.333333 365.333333 725.333333 298.666667c0-117.653333-95.68-213.333333-213.333333-213.333334S298.666667 181.013333 298.666667 298.666667c0 66.666667 30.72 126.4 78.826666 165.546666l-66.773333 133.546667c-3.946667-0.32-8-0.426667-12.053333-0.426667-94.08 0-170.666667 76.586667-170.666667 170.666667s76.586667 170.666667 170.666667 170.666667 170.666667-76.586667 170.666666-170.666667c0-67.2-39.04-125.44-95.68-153.28l59.093334-117.973333c24.533333 9.813333 51.2 15.253333 79.253333 15.253333s54.72-5.44 79.253333-15.253333l59.093334 117.973333C593.706667 642.56 554.666667 700.8 554.666667 768c0 94.08 76.586667 170.666667 170.666666 170.666667s170.666667-76.586667 170.666667-170.666667-76.586667-170.666667-170.666667-170.666667zM405.333333 768c0 58.773333-47.893333 106.666667-106.666666 106.666667s-106.666667-47.893333-106.666667-106.666667 47.893333-106.666667 106.666667-106.666667 106.666667 47.893333 106.666666 106.666667zM512 448C429.653333 448 362.666667 381.013333 362.666667 298.666667s66.986667-149.333333 149.333333-149.333334 149.333333 66.986667 149.333333 149.333334S594.346667 448 512 448z m213.333333 426.666667c-58.773333 0-106.666667-47.893333-106.666666-106.666667s47.893333-106.666667 106.666666-106.666667 106.666667 47.893333 106.666667 106.666667-47.893333 106.666667-106.666667 106.666667z" p-id="1384" fill="#bfbfbf"></path></svg>