<?xml version="1.0" standalone="no"?><!DOCTYPE svg PUBLIC "-//W3C//DTD SVG 1.1//EN" "http://www.w3.org/Graphics/SVG/1.1/DTD/svg11.dtd"><svg t="1611642855092" class="icon" viewBox="0 0 1024 1024" version="1.1" xmlns="http://www.w3.org/2000/svg" p-id="8949" xmlns:xlink="http://www.w3.org/1999/xlink" width="128" height="128"><defs><style type="text/css"></style></defs><path d="M545.066667 420.373333a32 32 0 0 1-22.624-54.634666l197.024-197.013334a32 32 0 0 1 45.248 45.258667L567.690667 411.008a31.936 31.936 0 0 1-22.624 9.365333zM635.626667 510.933333a31.978667 31.978667 0 0 1-22.624-54.624l197.013333-197.013333a31.978667 31.978667 0 0 1 45.248 0 31.978667 31.978667 0 0 1 0 45.248l-197.013333 197.013333a31.904 31.904 0 0 1-22.624 9.376zM903.36 670.293333c0-0.32-0.106667-0.64-0.106667-0.96-0.213333-1.173333-0.426667-2.24-0.746666-3.306666-0.426667-1.386667-0.853333-2.773333-1.493334-4.16a8.074667 8.074667 0 0 0-0.96-1.92c-2.346667-4.693333-5.973333-8.853333-10.453333-11.84a9.216 9.216 0 0 0-1.706667-1.066667c-2.346667-1.493333-5.12-2.666667-8-3.413333l-339.413333-90.88-0.96-0.32h-0.213333c-1.066667-0.32-2.133333-0.533333-3.2-0.746667a32.256 32.256 0 0 0-15.146667 1.386667c-1.173333 0.32-2.24 0.746667-3.306667 1.28a39.658667 39.658667 0 0 0-6.933333 4.373333c-0.746667 0.746667-1.493333 1.386667-2.133333 2.026667a1.28 1.28 0 0 0-0.533334 0.533333L259.306667 810.026667c-0.32 0.32-0.533333 0.533333-0.746667 0.853333-0.96 0.96-1.813333 2.026667-2.56 3.093333-1.066667 1.386667-1.92 2.88-2.666667 4.373334-0.746667 1.493333-1.386667 3.093333-1.92 4.693333-0.533333 1.493333-0.853333 3.093333-1.066666 4.693333-0.32 1.706667-0.426667 3.306667-0.426667 4.906667 0 1.28 0.106667 2.453333 0.213333 3.733333 0.106667 1.173333 0.32 2.453333 0.64 3.626667 0.32 1.173333 0.64 2.346667 1.066667 3.52 0.426667 1.173333 0.96 2.346667 1.493333 3.413333 0.533333 1.173333 1.173333 2.24 1.813334 3.306667 0.746667 1.066667 1.493333 2.026667 2.346666 2.986667 0.853333 0.96 1.706667 1.92 2.666667 2.773333 0.96 0.96 2.026667 1.813333 3.093333 2.56 0.746667 0.533333 1.6 1.066667 2.346667 1.6 42.133333 30.186667 88.96 51.84 139.093333 64.853333C439.68 934.08 475.733333 938.666667 512 938.666667c14.186667 0 28.373333-0.746667 42.133333-2.026667 14.186667-1.493333 27.84-3.52 40.746667-6.08 32.213333-6.293333 63.466667-16.32 92.906667-29.76a426.133333 426.133333 0 0 0 212.693333-212.373333c0.213333-0.426667 0.426667-0.96 0.64-1.493334 0.533333-1.066667 0.96-2.24 1.173333-3.413333 0.32-0.746667 0.533333-1.493333 0.64-2.346667 0.32-1.066667 0.426667-2.24 0.533334-3.306666 0.213333-1.066667 0.213333-2.133333 0.213333-3.306667 0-1.493333-0.106667-2.88-0.32-4.266667z m-242.133333 172.266667a351.434667 351.434667 0 0 1-113.493334 30.293333c-41.493333 4.16-85.76 0.96-127.04-9.706666-30.933333-8.106667-60.48-20.16-88.106666-35.946667l208.106666-208.106667 284.266667 76.053334a362.368 362.368 0 0 1-163.733333 147.413333z" p-id="8950" fill="#bfbfbf"></path><path d="M260.16 856a16.394667 16.394667 0 0 1-2.666667-2.773333c0.853333 0.96 1.706667 1.92 2.666667 2.773333zM506.773333 277.12a31.978667 31.978667 0 0 1-22.624-54.624l112.96-112.96a31.978667 31.978667 0 0 1 45.248 0 31.978667 31.978667 0 0 1 0 45.248l-112.96 112.96a31.904 31.904 0 0 1-22.624 9.376zM787.306667 551.466667a32 32 0 0 1-22.624-54.634667L871.466667 390.058667a32 32 0 0 1 45.248 45.258666l-106.784 106.773334a31.904 31.904 0 0 1-22.624 9.376zM472.32 487.893333c-0.213333-1.066667-0.426667-2.133333-0.746667-3.2v-0.213333l-0.32-0.96-90.88-339.413333-0.32-1.173334c-0.746667-2.453333-1.813333-4.8-3.093333-6.826666a9.216 9.216 0 0 0-1.066667-1.706667c0-0.106667-0.106667-0.213333-0.106666-0.213333-0.64-0.96-1.28-1.813333-2.133334-2.666667a31.36 31.36 0 0 0-10.026666-7.893333c-0.533333-0.213333-0.96-0.426667-1.493334-0.64-1.386667-0.64-2.666667-1.173333-4.16-1.493334-1.066667-0.32-2.133333-0.533333-3.306666-0.746666-0.32-0.106667-0.64-0.106667-0.96-0.106667-1.386667-0.213333-2.773333-0.32-4.266667-0.32-1.066667 0-2.24 0-3.306667 0.213333-1.066667 0.106667-2.24 0.213333-3.306666 0.533334l-1.6 0.32-1.173334 0.32c-1.706667 0.533333-3.306667 1.173333-4.8 1.92A426.56 426.56 0 0 0 123.2 336.213333a417.333333 417.333333 0 0 0-32.213333 106.666667c-1.706667 10.24-2.88 18.88-3.52 26.986667-1.386667 13.76-2.133333 27.946667-2.133334 42.133333 0 39.36 5.44 78.506667 16.106667 116.48 13.44 47.253333 34.666667 91.306667 63.146667 131.093333 0.64 0.96 1.28 1.92 2.133333 2.773334 0.533333 0.746667 1.173333 1.493333 1.813333 2.133333l0.213334 0.213333c1.493333 1.6 3.2 2.986667 5.013333 4.16 1.066667 0.64 2.133333 1.28 3.2 1.813334 1.173333 0.64 2.346667 1.066667 3.52 1.493333 1.066667 0.426667 2.346667 0.746667 3.52 1.066667 1.173333 0.32 2.453333 0.533333 3.626667 0.64 1.28 0.106667 2.453333 0.213333 3.733333 0.213333 1.386667 0 2.88-0.106667 4.266667-0.32 0.426667 0 0.746667-0.106667 1.066666-0.106667 1.386667-0.213333 2.88-0.64 4.266667-1.066666 1.6-0.533333 3.2-1.066667 4.693333-1.92 1.493333-0.746667 2.986667-1.6 4.373334-2.666667 0.853333-0.64 1.706667-1.28 2.453333-1.92 0.533333-0.426667 1.066667-0.96 1.493333-1.386667l248.746667-248.746666a1.28 1.28 0 0 0 0.533333-0.533334c0.64-0.64 1.28-1.386667 2.026667-2.133333a36.874667 36.874667 0 0 0 4.373333-6.933333c0.533333-1.066667 0.96-2.133333 1.28-3.306667 0.32-0.853333 0.533333-1.6 0.746667-2.453333 0.213333-0.853333 0.426667-1.706667 0.533333-2.56 0.533333-3.306667 0.64-6.72 0.106667-10.133334zM196.8 691.413333a362.133333 362.133333 0 0 1-33.813333-80.32C153.92 578.773333 149.333333 545.493333 149.333333 512c0-12.053333 0.64-24.106667 1.813334-36.16 0.533333-6.72 1.493333-13.76 2.986666-22.613333C159.146667 421.973333 168.32 391.466667 181.44 362.666667c31.146667-68.8 82.773333-125.866667 147.413333-163.626667l76.053334 284.266667-208.106667 208.106666zM902.933333 681.173333c0 0.533333-0.213333 1.066667-0.32 1.6-0.106667 0.213333-0.106667 0.533333-0.32 0.746667 0.32-0.746667 0.533333-1.493333 0.64-2.346667z" p-id="8951" fill="#bfbfbf"></path><path d="M472.330667 118.997333m-32 0a32 32 0 1 0 64 0 32 32 0 1 0-64 0Z" p-id="8952" fill="#bfbfbf"></path><path d="M906.666667 554.666667m-32 0a32 32 0 1 0 64 0 32 32 0 1 0-64 0Z" p-id="8953" fill="#bfbfbf"></path></svg>