<?xml version="1.0" standalone="no"?><!DOCTYPE svg PUBLIC "-//W3C//DTD SVG 1.1//EN" "http://www.w3.org/Graphics/SVG/1.1/DTD/svg11.dtd"><svg t="1611647292868" class="icon" viewBox="0 0 1024 1024" version="1.1" xmlns="http://www.w3.org/2000/svg" p-id="21032" xmlns:xlink="http://www.w3.org/1999/xlink" width="128" height="128"><defs><style type="text/css"></style></defs><path d="M286.165333 798.165333a42.666667 42.666667 0 1 1-60.330666-60.330666l512-512a42.666667 42.666667 0 0 1 60.330666 60.330666l-512 512zM469.333333 320a42.666667 42.666667 0 0 1-85.333333 0A64 64 0 1 0 320 384a42.666667 42.666667 0 1 1 0 85.333333A149.333333 149.333333 0 1 1 469.333333 320zM704 853.333333a149.333333 149.333333 0 1 1 0-298.666666 149.333333 149.333333 0 0 1 0 298.666666z m0-85.333333a64 64 0 1 0 0-128 64 64 0 0 0 0 128z" p-id="21033" fill="#bfbfbf"></path></svg>