<?xml version="1.0" standalone="no"?><!DOCTYPE svg PUBLIC "-//W3C//DTD SVG 1.1//EN" "http://www.w3.org/Graphics/SVG/1.1/DTD/svg11.dtd"><svg t="1611647297901" class="icon" viewBox="0 0 1024 1024" version="1.1" xmlns="http://www.w3.org/2000/svg" p-id="21225" xmlns:xlink="http://www.w3.org/1999/xlink" width="128" height="128"><defs><style type="text/css"></style></defs><path d="M490.496 932.864C320.981333 834.005333 170.666667 586.538667 170.666667 426.666667c0-209.706667 162.133333-341.333333 341.333333-341.333334s341.333333 131.626667 341.333333 341.333334c0 159.872-150.314667 407.338667-319.829333 506.197333a42.666667 42.666667 0 0 1-43.008 0zM768 426.666667c0-158.208-120.448-256-256-256s-256 97.792-256 256c0 122.24 120.490667 326.784 256 418.901333 135.509333-92.16 256-296.661333 256-418.901333z m-261.632-85.162667a42.666667 42.666667 0 0 1-5.546667-85.162667A170.666667 170.666667 0 1 1 359.082667 350.72a42.666667 42.666667 0 1 1 76.458666 38.016 85.333333 85.333333 0 1 0 70.826667-47.232z" p-id="21226" fill="#bfbfbf"></path></svg>