<?xml version="1.0" standalone="no"?><!DOCTYPE svg PUBLIC "-//W3C//DTD SVG 1.1//EN" "http://www.w3.org/Graphics/SVG/1.1/DTD/svg11.dtd"><svg t="1611647349648" class="icon" viewBox="0 0 1024 1024" version="1.1" xmlns="http://www.w3.org/2000/svg" p-id="23879" xmlns:xlink="http://www.w3.org/1999/xlink" width="128" height="128"><defs><style type="text/css"></style></defs><path d="M679.978667 628.992l-58.88 58.794667a42.581333 42.581333 0 0 1-60.16-60.245334l74.922666-74.922666a42.581333 42.581333 0 0 1 38.442667-11.648l187.349333 37.461333a42.581333 42.581333 0 0 1 34.261334 41.813333v224.682667a42.581333 42.581333 0 0 1-32.725334 41.429333c-144.469333 34.346667-350.72-22.314667-527.104-198.570666-176.341333-176.256-232.96-382.506667-198.528-527.061334A42.581333 42.581333 0 0 1 179.029333 128h224.810667c20.309333 0 37.76 14.336 41.770667 34.218667l37.461333 187.306666a42.581333 42.581333 0 0 1-11.648 38.485334l-52.608 52.565333a446.634667 446.634667 0 0 0 93.653333 114.261333 42.581333 42.581333 0 1 1-55.893333 64.341334 518.741333 518.741333 0 0 1-26.88-25.088 539.861333 539.861333 0 0 1-101.461333-142.336 42.581333 42.581333 0 0 1 8.021333-49.109334l58.794667-58.794666-26.112-130.645334H214.869333c-12.501333 114.773333 40.192 273.152 181.461334 414.293334 141.226667 141.226667 299.648 194.005333 414.378666 181.589333v-153.941333l-130.730666-26.154667zM810.666667 273.450667l-140.245334 140.245333a42.581333 42.581333 0 1 1-60.245333-60.245333l140.245333-140.245334h-110.122666a42.581333 42.581333 0 1 1 0-85.205333H853.333333a42.624 42.624 0 0 1 42.581334 45.568V383.573333a42.581333 42.581333 0 0 1-85.205334 0V273.450667z" p-id="23880" fill="#bfbfbf"></path></svg>