<?xml version="1.0" standalone="no"?><!DOCTYPE svg PUBLIC "-//W3C//DTD SVG 1.1//EN" "http://www.w3.org/Graphics/SVG/1.1/DTD/svg11.dtd"><svg t="1611647320854" class="icon" viewBox="0 0 1024 1024" version="1.1" xmlns="http://www.w3.org/2000/svg" p-id="22335" xmlns:xlink="http://www.w3.org/1999/xlink" width="128" height="128"><defs><style type="text/css"></style></defs><path d="M680.021333 629.034667l-58.837333 58.794666a42.581333 42.581333 0 1 1-60.245333-60.245333l74.965333-74.922667a42.581333 42.581333 0 0 1 38.485333-11.648l187.349334 37.461334a42.581333 42.581333 0 0 1 34.261333 41.813333v224.725333a42.581333 42.581333 0 0 1-32.725333 41.429334c-144.512 34.389333-350.805333-22.314667-527.146667-198.613334-176.384-176.256-232.96-382.549333-198.570667-527.104A42.581333 42.581333 0 0 1 179.029333 128h224.853334a42.666667 42.666667 0 0 1 41.770666 34.261333l37.461334 187.306667a42.581333 42.581333 0 0 1-11.648 38.442667l-52.608 52.565333a446.677333 446.677333 0 0 0 93.653333 114.346667 42.581333 42.581333 0 1 1-55.893333 64.298666 518.826667 518.826667 0 0 1-26.88-25.088 539.904 539.904 0 0 1-101.504-142.378666 42.581333 42.581333 0 0 1 8.021333-49.066667L395.093333 343.893333l-26.154666-130.688H214.869333c-12.458667 114.773333 40.192 273.194667 181.461334 414.378667 141.312 141.226667 299.733333 193.962667 414.464 181.546667v-153.941334l-130.773334-26.154666z" p-id="22336" fill="#bfbfbf"></path></svg>