<?xml version="1.0" standalone="no"?><!DOCTYPE svg PUBLIC "-//W3C//DTD SVG 1.1//EN" "http://www.w3.org/Graphics/SVG/1.1/DTD/svg11.dtd"><svg t="1611642789945" class="icon" viewBox="0 0 1024 1024" version="1.1" xmlns="http://www.w3.org/2000/svg" p-id="6619" xmlns:xlink="http://www.w3.org/1999/xlink" width="128" height="128"><defs><style type="text/css"></style></defs><path d="M778.666667 896H245.333333a32 32 0 1 1 0-64h533.333334a32 32 0 1 1 0 64z" p-id="6620" fill="#bfbfbf"></path><path d="M864 128h-106.666667c-17.706667 0-32 14.293333-32 32v32H298.666667v-32c0-17.706667-14.293333-32-32-32H160c-17.706667 0-32 14.293333-32 32V480c0 17.706667 14.293333 32 32 32h106.666667c17.706667 0 32-14.293333 32-32V448h64v277.333333H245.333333c-17.706667 0-32 14.293333-32 32v106.666667c0 17.706667 14.293333 32 32 32h533.333334c17.706667 0 32-14.293333 32-32V757.333333c0-17.706667-14.293333-32-32-32H661.333333V448h64v32c0 17.706667 14.293333 32 32 32h106.666667c17.706667 0 32-14.293333 32-32v-320c0-17.706667-14.293333-32-32-32zM234.666667 448h-42.666667v-256h42.666667V448z m512 341.333333v42.666667H277.333333v-42.666667h469.333334z m-21.333334-405.333333h-96c-17.706667 0-32 14.293333-32 32v309.333333H426.666667V416c0-17.706667-14.293333-32-32-32h-96v-128h426.666666V384z m106.666667 64h-42.666667v-256h42.666667V448z" p-id="6621" fill="#bfbfbf"></path></svg>