<?xml version="1.0" standalone="no"?><!DOCTYPE svg PUBLIC "-//W3C//DTD SVG 1.1//EN" "http://www.w3.org/Graphics/SVG/1.1/DTD/svg11.dtd"><svg t="1611647340644" class="icon" viewBox="0 0 1024 1024" version="1.1" xmlns="http://www.w3.org/2000/svg" p-id="23493" xmlns:xlink="http://www.w3.org/1999/xlink" width="128" height="128"><defs><style type="text/css"></style></defs><path d="M469.333333 469.333333V341.333333a42.666667 42.666667 0 0 1 85.333334 0v341.333334a42.666667 42.666667 0 0 1-85.333334 0v-128H341.333333a42.666667 42.666667 0 0 1 0-85.333334h128z m341.333334-256H341.333333a42.666667 42.666667 0 1 1 0-85.333333h512a42.666667 42.666667 0 0 1 42.666667 42.666667v682.666666a42.666667 42.666667 0 0 1-42.666667 42.666667H170.666667a42.666667 42.666667 0 0 1-42.666667-42.666667V170.666667a42.666667 42.666667 0 1 1 85.333333 0v640h597.333334V213.333333z m-170.666667 341.333334a42.666667 42.666667 0 0 1 0-85.333334h42.666667a42.666667 42.666667 0 0 1 0 85.333334h-42.666667z" p-id="23494" fill="#bfbfbf"></path></svg>