<?xml version="1.0" standalone="no"?><!DOCTYPE svg PUBLIC "-//W3C//DTD SVG 1.1//EN" "http://www.w3.org/Graphics/SVG/1.1/DTD/svg11.dtd"><svg t="1611647385246" class="icon" viewBox="0 0 1024 1024" version="1.1" xmlns="http://www.w3.org/2000/svg" p-id="25809" xmlns:xlink="http://www.w3.org/1999/xlink" width="128" height="128"><defs><style type="text/css"></style></defs><path d="M305.92 256A128 128 0 1 1 554.666667 213.333333v42.666667h42.666666a42.666667 42.666667 0 0 0 0-85.333333 42.666667 42.666667 0 0 1 0-85.333334 128 128 0 0 1 120.746667 170.666667H853.333333a42.666667 42.666667 0 0 1 42.666667 42.666667v170.666666a42.666667 42.666667 0 0 1-42.666667 42.666667H341.333333a42.666667 42.666667 0 0 1 0-85.333333h469.333334V341.333333H213.333333v85.333334a42.666667 42.666667 0 0 1 42.666667 42.666666v384h512v-256a42.666667 42.666667 0 0 1 85.333333 0v298.666667a42.666667 42.666667 0 0 1-42.666666 42.666667H213.333333a42.666667 42.666667 0 0 1-42.666666-42.666667v-384a42.666667 42.666667 0 0 1-42.666667-42.666667V298.666667a42.666667 42.666667 0 0 1 42.666667-42.666667h135.253333zM469.333333 256V213.333333a42.666667 42.666667 0 1 0-42.666666 42.666667h42.666666z" p-id="25810" fill="#bfbfbf"></path></svg>