<?xml version="1.0" standalone="no"?><!DOCTYPE svg PUBLIC "-//W3C//DTD SVG 1.1//EN" "http://www.w3.org/Graphics/SVG/1.1/DTD/svg11.dtd"><svg t="1611647378902" class="icon" viewBox="0 0 1024 1024" version="1.1" xmlns="http://www.w3.org/2000/svg" p-id="25423" xmlns:xlink="http://www.w3.org/1999/xlink" width="128" height="128"><defs><style type="text/css"></style></defs><path d="M256 469.333333V170.666667a42.666667 42.666667 0 0 1 42.666667-42.666667h426.666666a42.666667 42.666667 0 0 1 42.666667 42.666667v298.666666h85.333333a42.666667 42.666667 0 0 1 42.666667 42.666667v341.333333a42.666667 42.666667 0 0 1-85.333333 0v-298.666666H213.333333v298.666666a42.666667 42.666667 0 0 1-85.333333 0v-341.333333a42.666667 42.666667 0 0 1 42.666667-42.666667h85.333333z m42.666667 426.666667a42.666667 42.666667 0 0 1 0-85.333333h426.666666a42.666667 42.666667 0 0 1 0 85.333333H298.666667z m384-170.666667a42.666667 42.666667 0 0 1 0-85.333333h42.666666a42.666667 42.666667 0 0 1 0 85.333333h-42.666666zM341.333333 213.333333v256h341.333334V213.333333H341.333333z" p-id="25424" fill="#bfbfbf"></path></svg>