<?xml version="1.0" standalone="no"?><!DOCTYPE svg PUBLIC "-//W3C//DTD SVG 1.1//EN" "http://www.w3.org/Graphics/SVG/1.1/DTD/svg11.dtd"><svg t="1611647389342" class="icon" viewBox="0 0 1024 1024" version="1.1" xmlns="http://www.w3.org/2000/svg" p-id="26002" xmlns:xlink="http://www.w3.org/1999/xlink" width="128" height="128"><defs><style type="text/css"></style></defs><path d="M853.333333 707.669333l55.168-55.168a42.666667 42.666667 0 0 1 60.330667 60.330667l-128 128a42.666667 42.666667 0 0 1-60.330667 0l-128-128a42.666667 42.666667 0 0 1 60.330667-60.330667L768 707.669333V256h-341.333333a42.666667 42.666667 0 1 1 0-85.333333h384a42.666667 42.666667 0 0 1 42.666666 42.666666v494.336zM170.666667 316.330667L115.498667 371.498667a42.666667 42.666667 0 0 1-60.330667-60.330667l128-128a42.666667 42.666667 0 0 1 60.330667 0l128 128a42.666667 42.666667 0 0 1-60.330667 60.330667L256 316.330667V768h341.333333a42.666667 42.666667 0 0 1 0 85.333333H213.333333a42.666667 42.666667 0 0 1-42.666666-42.666666V316.330667z" p-id="26003" fill="#bfbfbf"></path></svg>