<?xml version="1.0" standalone="no"?><!DOCTYPE svg PUBLIC "-//W3C//DTD SVG 1.1//EN" "http://www.w3.org/Graphics/SVG/1.1/DTD/svg11.dtd"><svg t="1611642705555" class="icon" viewBox="0 0 1024 1024" version="1.1" xmlns="http://www.w3.org/2000/svg" p-id="3953" xmlns:xlink="http://www.w3.org/1999/xlink" width="128" height="128"><defs><style type="text/css"></style></defs><path d="M671.786667 116.48c-1.173333-0.64-2.346667-1.066667-3.626667-1.493333C619.84 95.786667 567.146667 85.333333 512 85.333333c-235.306667 0-426.666667 191.36-426.666667 426.666667 0 182.186667 114.666667 338.026667 275.733334 399.04 0.106667 0.106667 0.213333 0.106667 0.32 0.213333 1.28 0.533333 2.666667 0.96 4.053333 1.493334l0.96 0.32A425.173333 425.173333 0 0 0 512 938.666667c56.32 0 110.08-10.986667 159.36-30.933334 1.92-0.64 3.733333-1.386667 5.546667-2.24C830.506667 840.96 938.666667 688.853333 938.666667 512c0-178.773333-110.506667-332.266667-266.88-395.52zM360 841.173333C235.733333 783.68 149.333333 657.706667 149.333333 512c0-191.573333 149.226667-348.8 337.493334-361.813333L302.613333 485.973333A31.968 31.968 0 0 0 330.666667 533.333333h179.626666L360 841.173333zM631.466667 854.4C594.026667 867.52 553.813333 874.666667 512 874.666667c-31.573333 0-62.186667-4.053333-91.413333-11.626667l169.706666-347.626667c4.8-9.92 4.16-21.653333-1.706666-31.04A31.808 31.808 0 0 0 561.493333 469.333333H384.746667l173.973333-317.013333c18.133333 2.346667 35.84 5.973333 53.013333 10.986667L522.026667 337.386667c-5.12 9.92-4.693333 21.76 1.173333 31.253333 5.76 9.6 16.106667 15.36 27.306667 15.36h108.906666L631.466667 854.4z m66.026666-30.826667L725.333333 353.92c0.426667-8.853333-2.666667-17.493333-8.746666-23.893333-5.973333-6.4-14.4-10.026667-23.253334-10.026667h-90.346666l68.8-133.546667C791.893333 245.653333 874.666667 369.28 874.666667 512c0 132.266667-71.146667 248.213333-177.173334 311.573333z" p-id="3954" fill="#bfbfbf"></path></svg>