<?xml version="1.0" standalone="no"?><!DOCTYPE svg PUBLIC "-//W3C//DTD SVG 1.1//EN" "http://www.w3.org/Graphics/SVG/1.1/DTD/svg11.dtd"><svg t="1611647409161" class="icon" viewBox="0 0 1024 1024" version="1.1" xmlns="http://www.w3.org/2000/svg" p-id="27160" xmlns:xlink="http://www.w3.org/1999/xlink" width="128" height="128"><defs><style type="text/css"></style></defs><path d="M512 177.493333C427.434667 233.557333 384 343.168 384 512a42.666667 42.666667 0 0 1-12.501333 30.165333L318.464 595.2A213.333333 213.333333 0 0 0 256 746.026667V896a42.666667 42.666667 0 0 1-85.333333 0v-149.973333a298.666667 298.666667 0 0 1 87.466666-211.2l40.704-40.661334c3.498667-200.533333 67.029333-337.322667 193.28-403.882666a42.666667 42.666667 0 0 1 39.808 0c126.208 66.56 189.738667 203.306667 193.28 403.882666l40.661334 40.704a298.666667 298.666667 0 0 1 87.466666 211.2V896c0 40.234667-50.602667 58.112-75.861333 26.794667-48.213333-59.733333-95.701333-103.552-142.08-131.84-8.362667 14.208-17.237333 28.544-26.752 43.050666a42.666667 42.666667 0 0 1-35.712 19.328h-121.856a42.666667 42.666667 0 0 1-35.712-19.328c-9.514667-14.506667-18.389333-28.842667-26.709333-43.008a379.733333 379.733333 0 0 0-25.472 16.981334 42.666667 42.666667 0 0 1-50.133334-69.077334 421.888 421.888 0 0 1 75.093334-43.989333 42.666667 42.666667 0 0 1 55.210666 19.029333c9.258667 17.621333 19.626667 35.626667 31.146667 54.058667h75.050667c11.477333-18.432 21.845333-36.437333 31.146666-54.058667a42.666667 42.666667 0 0 1 55.125334-19.029333c44.714667 20.053333 88.746667 50.602667 132.181333 91.562667v-40.448a213.333333 213.333333 0 0 0-62.464-150.826667l-53.034667-53.034667A42.666667 42.666667 0 0 1 640 512c0-168.874667-43.434667-278.485333-128-334.506667zM512 384a42.666667 42.666667 0 1 1 0-85.333333 42.666667 42.666667 0 0 1 0 85.333333z m0 128a42.666667 42.666667 0 1 1 0-85.333333 42.666667 42.666667 0 0 1 0 85.333333z" p-id="27161" fill="#bfbfbf"></path></svg>