<?xml version="1.0" standalone="no"?><!DOCTYPE svg PUBLIC "-//W3C//DTD SVG 1.1//EN" "http://www.w3.org/Graphics/SVG/1.1/DTD/svg11.dtd"><svg t="1611647476651" class="icon" viewBox="0 0 1024 1024" version="1.1" xmlns="http://www.w3.org/2000/svg" p-id="28511" xmlns:xlink="http://www.w3.org/1999/xlink" width="128" height="128"><defs><style type="text/css"></style></defs><path d="M188.330667 512l82.346666 82.304a42.666667 42.666667 0 0 1 12.458667 30.165333v159.061334a42.666667 42.666667 0 1 1-85.333333 0V642.133333l-99.968-99.968a42.666667 42.666667 0 0 1 0-60.330666L197.802667 381.866667V240.469333a42.666667 42.666667 0 0 1 42.666666-42.666666H381.866667l99.968-99.968a42.666667 42.666667 0 0 1 60.330666 0l99.968 99.968h141.397334a42.666667 42.666667 0 0 1 42.666666 42.666666V381.866667l99.968 99.968a42.666667 42.666667 0 0 1 0 60.330666l-99.968 99.968v141.397334a42.666667 42.666667 0 0 1-42.666666 42.666666H642.133333l-99.968 99.968a42.666667 42.666667 0 0 1-60.330666 0l-112.469334-112.469333a42.666667 42.666667 0 0 1 60.330667-60.330667L512 835.669333l82.304-82.346666a42.666667 42.666667 0 0 1 30.165333-12.458667h116.394667v-116.394667a42.666667 42.666667 0 0 1 12.501333-30.165333L835.669333 512l-82.346666-82.304a42.666667 42.666667 0 0 1-12.458667-30.165333V283.136h-116.394667a42.666667 42.666667 0 0 1-30.165333-12.501333L512 188.330667l-82.304 82.346666a42.666667 42.666667 0 0 1-30.165333 12.458667H283.136v116.394667a42.666667 42.666667 0 0 1-12.501333 30.165333L188.330667 512z m268.501333 115.498667a42.666667 42.666667 0 1 1-60.330667-60.330667l170.666667-170.666667a42.666667 42.666667 0 0 1 60.330667 60.330667l-170.666667 170.666667zM405.333333 448a42.666667 42.666667 0 1 1 0-85.333333 42.666667 42.666667 0 0 1 0 85.333333z m213.333334 213.333333a42.666667 42.666667 0 1 1 0-85.333333 42.666667 42.666667 0 0 1 0 85.333333z" p-id="28512" fill="#bfbfbf"></path></svg>