<?xml version="1.0" standalone="no"?><!DOCTYPE svg PUBLIC "-//W3C//DTD SVG 1.1//EN" "http://www.w3.org/Graphics/SVG/1.1/DTD/svg11.dtd"><svg t="1611642823787" class="icon" viewBox="0 0 1024 1024" version="1.1" xmlns="http://www.w3.org/2000/svg" p-id="7396" xmlns:xlink="http://www.w3.org/1999/xlink" width="128" height="128"><defs><style type="text/css"></style></defs><path d="M693.973333 126.08A424.682667 424.682667 0 0 0 512 85.333333a424.682667 424.682667 0 0 0-181.973333 40.746667C185.493333 194.453333 85.333333 341.76 85.333333 512s100.16 317.546667 244.693334 385.92A424.682667 424.682667 0 0 0 512 938.666667a424.682667 424.682667 0 0 0 181.973333-40.746667C838.506667 829.546667 938.666667 682.24 938.666667 512s-100.16-317.546667-244.693334-385.92zM320 819.626667C217.6 755.413333 149.333333 641.6 149.333333 512s68.266667-243.413333 170.666667-307.626667v615.253334z m320 31.68C600.213333 866.453333 557.013333 874.666667 512 874.666667s-88.213333-8.213333-128-23.36V746.666667h256v104.64zM640 682.666667H384V533.333333h256v149.333334z m0-213.333334H384V341.333333h256V469.333333z m0-192H384v-104.64C423.786667 157.546667 466.986667 149.333333 512 149.333333s88.213333 8.213333 128 23.36V277.333333z m64 542.293334v-615.253334c102.4 64.213333 170.666667 178.026667 170.666667 307.626667s-68.266667 243.413333-170.666667 307.626667z" p-id="7397" fill="#bfbfbf"></path><path d="M693.973333 126.08c-6.4-2.986667-12.906667-5.973333-19.52-8.64 7.573333 0.533333 14.4 3.733333 19.52 8.64zM693.973333 897.92c-5.12 4.906667-11.946667 8.106667-19.52 8.64 6.613333-2.666667 13.12-5.653333 19.52-8.64z" p-id="7398" fill="#bfbfbf"></path><path d="M349.546667 117.44c-6.613333 2.666667-13.12 5.653333-19.52 8.64a31.36 31.36 0 0 1 19.52-8.64zM349.546667 906.56a31.36 31.36 0 0 1-19.52-8.64c6.4 2.986667 12.906667 5.973333 19.52 8.64z" p-id="7399" fill="#bfbfbf"></path></svg>