<?xml version="1.0" standalone="no"?><!DOCTYPE svg PUBLIC "-//W3C//DTD SVG 1.1//EN" "http://www.w3.org/Graphics/SVG/1.1/DTD/svg11.dtd"><svg t="1611642906706" class="icon" viewBox="0 0 1024 1024" version="1.1" xmlns="http://www.w3.org/2000/svg" p-id="2246" xmlns:xlink="http://www.w3.org/1999/xlink" width="128" height="128"><defs><style type="text/css"></style></defs><path d="M518.4 0c-102.4 0-192 83.2-192 185.6H83.2c-25.6 0-51.2 19.2-51.2 51.2S51.2 288 83.2 288h51.2v550.4C134.4 940.8 204.8 1024 288 1024h441.6c89.6 0 153.6-83.2 153.6-185.6V288h51.2c25.6 0 51.2-19.2 51.2-51.2s-19.2-51.2-51.2-51.2H704c6.4-102.4-76.8-185.6-185.6-185.6zM416 185.6c6.4-51.2 44.8-96 102.4-96s96 38.4 102.4 96H416zM294.4 934.4c-32 0-64-38.4-64-96V288H800v550.4c0 57.6-32 96-64 96H294.4z m64-121.6c25.6 0 38.4-25.6 38.4-51.2v-288c6.4-25.6-12.8-51.2-38.4-51.2S320 448 320 473.6v288c0 32 19.2 51.2 38.4 51.2z m147.2 0c25.6 0 38.4-25.6 38.4-51.2v-288c0-25.6-19.2-51.2-38.4-51.2s-38.4 25.6-38.4 51.2v288c0 32 19.2 51.2 38.4 51.2z m160 0c25.6 0 38.4-25.6 38.4-51.2v-288c0-25.6-19.2-51.2-38.4-51.2s-44.8 25.6-44.8 51.2v288c0 32 19.2 51.2 44.8 51.2z" p-id="2247" fill="#bfbfbf"></path></svg>