<?xml version="1.0" standalone="no"?><!DOCTYPE svg PUBLIC "-//W3C//DTD SVG 1.1//EN" "http://www.w3.org/Graphics/SVG/1.1/DTD/svg11.dtd"><svg t="1611647406224" class="icon" viewBox="0 0 1024 1024" version="1.1" xmlns="http://www.w3.org/2000/svg" p-id="26967" xmlns:xlink="http://www.w3.org/1999/xlink" width="128" height="128"><defs><style type="text/css"></style></defs><path d="M640.170667 773.632a42.666667 42.666667 0 0 1 42.325333 0l149.333333 85.333333a42.666667 42.666667 0 1 1-42.325333 74.069334L661.333333 859.818667l-128.170666 73.216a42.666667 42.666667 0 0 1-42.325334 0L362.666667 859.818667l-128.170667 73.216A42.666667 42.666667 0 0 1 170.666667 896V128a42.666667 42.666667 0 0 1 42.666666-42.666667h597.333334a42.666667 42.666667 0 0 1 42.666666 42.666667v597.333333a42.666667 42.666667 0 0 1-85.333333 0V170.666667H256v651.818666l85.504-48.853333a42.666667 42.666667 0 0 1 42.325333 0L512 846.848l128.170667-73.216zM384 341.333333a42.666667 42.666667 0 1 1 0-85.333333h256a42.666667 42.666667 0 0 1 0 85.333333H384z m0 170.666667a42.666667 42.666667 0 0 1 0-85.333333h128a42.666667 42.666667 0 0 1 0 85.333333H384z" p-id="26968" fill="#bfbfbf"></path></svg>