<?xml version="1.0" standalone="no"?><!DOCTYPE svg PUBLIC "-//W3C//DTD SVG 1.1//EN" "http://www.w3.org/Graphics/SVG/1.1/DTD/svg11.dtd"><svg t="1611647422466" class="icon" viewBox="0 0 1024 1024" version="1.1" xmlns="http://www.w3.org/2000/svg" p-id="27932" xmlns:xlink="http://www.w3.org/1999/xlink" width="128" height="128"><defs><style type="text/css"></style></defs><path d="M768 495.701333v44.586667c40.277333 51.2 87.04 84.736 140.8 101.674667a42.666667 42.666667 0 0 1 18.005333 70.229333l-121.6 126.933333a42.666667 42.666667 0 0 1-30.805333 13.141334c-48.768 0-68.181333 7.722667-107.264 35.370666C614.656 924.757333 579.882667 938.666667 512 938.666667c-67.882667 0-102.698667-13.952-154.624-50.645334-39.594667-28.032-59.008-35.754667-107.776-35.754666a42.666667 42.666667 0 0 1-30.805333-13.141334l-121.6-126.933333a42.666667 42.666667 0 0 1 18.005333-70.229333c53.76-16.938667 100.522667-50.474667 140.8-101.674667v-44.586667l-61.738667-30.890666a42.666667 42.666667 0 0 1 38.144-76.288L256 400.298667V341.333333a256 256 0 1 1 512 0 42.666667 42.666667 0 0 1-85.333333 0 170.666667 170.666667 0 1 0-341.333334 0v213.333334a42.666667 42.666667 0 0 1-8.277333 25.258666c-37.802667 51.456-81.749333 90.88-131.541333 117.76l66.688 69.632c57.173333 2.474667 90.581333 17.152 137.941333 50.645334 39.253333 27.776 58.197333 35.370667 105.856 35.370666 47.658667 0 66.56-7.594667 105.344-34.986666 47.872-33.877333 81.322667-48.554667 138.453333-51.029334l66.688-69.589333c-49.792-26.88-93.738667-66.346667-131.541333-117.802667A42.666667 42.666667 0 0 1 682.666667 554.666667v-84.394667a42.666667 42.666667 0 0 1 23.594666-39.082667l85.333334-42.666666a42.666667 42.666667 0 0 1 38.144 76.288L768 495.701333z" p-id="27933" fill="#bfbfbf"></path></svg>