<?xml version="1.0" standalone="no"?><!DOCTYPE svg PUBLIC "-//W3C//DTD SVG 1.1//EN" "http://www.w3.org/Graphics/SVG/1.1/DTD/svg11.dtd"><svg t="1611643035740" class="icon" viewBox="0 0 1024 1024" version="1.1" xmlns="http://www.w3.org/2000/svg" p-id="4398" xmlns:xlink="http://www.w3.org/1999/xlink" width="128" height="128"><defs><style type="text/css"></style></defs><path d="M926.72 870.4L768 714.656a373.312 373.312 0 0 0 94.336-248.736c0-105.6-43.648-200.992-113.888-269.152l-0.096-0.096c-70.912-68.864-167.776-111.328-274.56-111.328S270.144 127.808 199.136 196.768l0.096-0.096c-70.304 68.256-113.952 163.648-113.952 269.216s43.616 200.992 113.856 269.152l0.096 0.096a393.664 393.664 0 0 0 273.952 110.4c88.512 0 170.24-29.12 236.096-78.272l-1.024 0.736 160.416 157.44c6.976 7.36 16.48 12.256 27.136 13.216h0.16c11.232-0.032 21.44-4.416 29.024-11.552l-0.032 0.032a40.064 40.064 0 0 0 1.696-56.768l0.032 0.032zM167.264 465.92c2.88-165.568 137.76-298.688 303.744-298.688h3.2-0.16 2.592c165.984 0 300.864 133.12 303.744 298.4v0.256c-2.88 165.568-137.76 298.688-303.744 298.688h-2.752 0.128-3.04c-165.984 0-300.864-133.12-303.744-298.4v-0.256z" p-id="4399" fill="#bfbfbf"></path></svg>