<?xml version="1.0" standalone="no"?><!DOCTYPE svg PUBLIC "-//W3C//DTD SVG 1.1//EN" "http://www.w3.org/Graphics/SVG/1.1/DTD/svg11.dtd"><svg t="1611647495351" class="icon" viewBox="0 0 1024 1024" version="1.1" xmlns="http://www.w3.org/2000/svg" p-id="29283" xmlns:xlink="http://www.w3.org/1999/xlink" width="128" height="128"><defs><style type="text/css"></style></defs><path d="M764.458667 469.333333A256.213333 256.213333 0 0 0 554.666667 259.541333V298.666667a42.666667 42.666667 0 0 1-85.333334 0v-39.125334A256.213333 256.213333 0 0 0 259.541333 469.333333H298.666667a42.666667 42.666667 0 0 1 0 85.333334h-39.125334A256.213333 256.213333 0 0 0 469.333333 764.458667V725.333333a42.666667 42.666667 0 0 1 85.333334 0v170.666667a42.666667 42.666667 0 0 1-85.333334 0v-45.312A341.504 341.504 0 0 1 173.312 554.666667H128a42.666667 42.666667 0 0 1 0-85.333334h45.312A341.504 341.504 0 0 1 469.333333 173.312V128a42.666667 42.666667 0 0 1 85.333334 0v45.312A341.504 341.504 0 0 1 850.688 469.333333H896a42.666667 42.666667 0 0 1 0 85.333334h-45.312a341.248 341.248 0 0 1-166.954667 252.373333 42.666667 42.666667 0 0 1-42.965333-73.728A255.957333 255.957333 0 0 0 764.458667 554.666667H725.333333a42.666667 42.666667 0 0 1 0-85.333334h39.125334z" p-id="29284" fill="#bfbfbf"></path></svg>