<?xml version="1.0" standalone="no"?><!DOCTYPE svg PUBLIC "-//W3C//DTD SVG 1.1//EN" "http://www.w3.org/Graphics/SVG/1.1/DTD/svg11.dtd"><svg t="1611642728112" class="icon" viewBox="0 0 1024 1024" version="1.1" xmlns="http://www.w3.org/2000/svg" p-id="4921" xmlns:xlink="http://www.w3.org/1999/xlink" width="128" height="128"><defs><style type="text/css"></style></defs><path d="M512 768a32 32 0 0 1-32-32v-74.666667a32 32 0 1 1 64 0v74.666667a32 32 0 0 1-32 32zM512 394.666667a32 32 0 0 1-32-32v-74.666667a32 32 0 1 1 64 0v74.666667a32 32 0 0 1-32 32zM362.666667 544h-74.666667a32 32 0 1 1 0-64h74.666667a32 32 0 1 1 0 64zM736 544h-74.666667a32 32 0 1 1 0-64h74.666667a32 32 0 1 1 0 64zM670.293333 702.293333a31.893333 31.893333 0 0 1-22.624-9.376l-52.768-52.768a31.978667 31.978667 0 0 1 0-45.248 31.978667 31.978667 0 0 1 45.248 0l52.768 52.768a31.978667 31.978667 0 0 1-22.624 54.624zM406.474667 438.474667a31.872 31.872 0 0 1-22.624-9.376L331.082667 376.330667a31.978667 31.978667 0 0 1 0-45.248 31.978667 31.978667 0 0 1 45.248 0l52.768 52.768a31.978667 31.978667 0 0 1-22.624 54.624zM353.706667 702.293333a31.978667 31.978667 0 0 1-22.624-54.624l52.768-52.768a32 32 0 1 1 45.258666 45.248l-52.768 52.768a31.914667 31.914667 0 0 1-22.634666 9.376zM617.525333 438.474667a32 32 0 0 1-22.624-54.634667l52.768-52.768a32 32 0 0 1 45.248 45.258667l-52.768 52.768a31.904 31.904 0 0 1-22.624 9.376z" p-id="4922" fill="#bfbfbf"></path><path d="M864 896H160a32 32 0 0 1-32-32v-704a32 32 0 0 1 32-32h704a32 32 0 0 1 32 32v704a32 32 0 0 1-32 32z m-672-64h640v-640H192v640z" p-id="4923" fill="#bfbfbf"></path></svg>