<?xml version="1.0" standalone="no"?><!DOCTYPE svg PUBLIC "-//W3C//DTD SVG 1.1//EN" "http://www.w3.org/Graphics/SVG/1.1/DTD/svg11.dtd"><svg t="1611647486119" class="icon" viewBox="0 0 1024 1024" version="1.1" xmlns="http://www.w3.org/2000/svg" p-id="28897" xmlns:xlink="http://www.w3.org/1999/xlink" width="128" height="128"><defs><style type="text/css"></style></defs><path d="M554.666667 344.874667V597.333333a42.666667 42.666667 0 0 1-85.333334 0V298.666667a42.666667 42.666667 0 0 1 42.666667-42.666667 341.333333 341.333333 0 1 1-149.461333 34.389333 42.666667 42.666667 0 1 1 37.376 76.714667A256 256 0 1 0 554.666667 344.917333zM469.333333 170.666667a42.666667 42.666667 0 0 1 0-85.333334h85.333334a42.666667 42.666667 0 0 1 0 85.333334h-85.333334z m230.4 55.466666a42.666667 42.666667 0 0 1 51.2-68.266666l85.333334 64a42.666667 42.666667 0 0 1-51.2 68.266666l-85.333334-64zM238.933333 290.133333a42.666667 42.666667 0 1 1-51.2-68.266666l85.333334-64a42.666667 42.666667 0 1 1 51.2 68.266666l-85.333334 64z" p-id="28898" fill="#bfbfbf"></path></svg>