<?xml version="1.0" standalone="no"?><!DOCTYPE svg PUBLIC "-//W3C//DTD SVG 1.1//EN" "http://www.w3.org/Graphics/SVG/1.1/DTD/svg11.dtd"><svg t="1611647512194" class="icon" viewBox="0 0 1024 1024" version="1.1" xmlns="http://www.w3.org/2000/svg" p-id="29862" xmlns:xlink="http://www.w3.org/1999/xlink" width="128" height="128"><defs><style type="text/css"></style></defs><path d="M522.197333 750.293333a42.453333 42.453333 0 0 1-8.106666-24.96v-277.333333c0-23.552 19.2-42.666667 42.922666-42.666667 23.765333 0 42.965333 19.114667 42.965334 42.666667v261.674667c26.837333 25.301333 71.594667 20.608 145.749333-23.210667 28.629333-16.938667 64.938667 3.541333 64.938667 36.693333v110.592c0 12.373333-5.418667 24.192-14.933334 32.298667C738.944 914.773333 662.869333 938.666667 569.472 938.666667c-164.778667 0-260.821333-72.106667-270.165333-213.333334v-234.666666H256.298667A42.794667 42.794667 0 0 1 213.333333 448v-128c0-20.906667 15.274667-38.784 36.096-42.112 69.418667-11.178667 114.304-61.269333 136.832-159.36 4.437333-19.413333 21.845333-33.194667 41.898667-33.194667h128.853333c23.765333 0 42.965333 19.114667 42.965334 42.666667v149.333333h128.896c23.722667 0 42.965333 19.114667 42.965333 42.666667v128c0 23.552-19.2 42.666667-42.965333 42.666667a42.794667 42.794667 0 0 1-42.965334-42.666667v-85.333333h-128.853333a42.794667 42.794667 0 0 1-43.008-42.666667V170.666667H461.226667c-29.226667 95.573333-83.626667 158.037333-161.92 182.912V405.333333H342.186667c23.722667 0 42.965333 19.114667 42.965333 42.666667l-0.128 274.517333c5.973333 89.173333 61.44 130.816 184.362667 130.816 65.28 0 116.650667-13.696 155.306666-40.448v-20.906666c-86.101333 33.621333-156.330667 21.930667-202.538666-41.685334z" p-id="29863" fill="#bfbfbf"></path></svg>