<?xml version="1.0" standalone="no"?><!DOCTYPE svg PUBLIC "-//W3C//DTD SVG 1.1//EN" "http://www.w3.org/Graphics/SVG/1.1/DTD/svg11.dtd"><svg t="1611642930170" class="icon" viewBox="0 0 1024 1024" version="1.1" xmlns="http://www.w3.org/2000/svg" p-id="2764" xmlns:xlink="http://www.w3.org/1999/xlink" width="128" height="128"><defs><style type="text/css"></style></defs><path d="M512 1024C229.216 1024 0 794.784 0 512S229.216 0 512 0s512 229.216 512 512c-0.384 282.624-229.376 511.648-511.968 512H512z m0-963.68C262.528 60.32 60.32 262.56 60.32 512S262.56 963.68 512 963.68c249.472 0 451.68-202.24 451.68-451.68-0.32-249.344-202.336-451.392-451.648-451.68H512z m0 752.864a30.08 30.08 0 0 1-30.08-30.08V241.408a30.08 30.08 0 0 1 60.16 0v541.696a30.08 30.08 0 0 1-30.08 30.08z m180.608-361.44a29.92 29.92 0 0 1-21.28-8.864l-159.36-159.36-159.456 159.36a30.144 30.144 0 0 1-42.624-42.624l180.672-180.704a30.176 30.176 0 0 1 42.688 0l180.736 180.736a30.176 30.176 0 0 1-21.408 51.456h-0.192z" p-id="2765" fill="#bfbfbf"></path></svg>