<?xml version="1.0" standalone="no"?><!DOCTYPE svg PUBLIC "-//W3C//DTD SVG 1.1//EN" "http://www.w3.org/Graphics/SVG/1.1/DTD/svg11.dtd"><svg t="1611643039453" class="icon" viewBox="0 0 1024 1024" version="1.1" xmlns="http://www.w3.org/2000/svg" p-id="4603" xmlns:xlink="http://www.w3.org/1999/xlink" width="128" height="128"><defs><style type="text/css"></style></defs><path d="M942.272 576H81.984a74.656 74.656 0 0 1-81.888-63.616L0.064 512a74.72 74.72 0 0 1 82.24-63.968L81.952 448h860.288a74.656 74.656 0 0 1 81.888 63.616l0.032 0.384a74.72 74.72 0 0 1-82.24 63.968l0.352 0.032zM512 1023.936a74.72 74.72 0 0 1-63.968-82.24l-0.032 0.352V81.888A74.656 74.656 0 0 1 511.616 0L512-0.032a74.72 74.72 0 0 1 63.968 82.24L576 81.856v860.16a74.656 74.656 0 0 1-63.616 81.888l-0.384 0.032z" p-id="4604" fill="#bfbfbf"></path></svg>