<?xml version="1.0" standalone="no"?><!DOCTYPE svg PUBLIC "-//W3C//DTD SVG 1.1//EN" "http://www.w3.org/Graphics/SVG/1.1/DTD/svg11.dtd"><svg t="1611642942250" class="icon" viewBox="0 0 1024 1024" version="1.1" xmlns="http://www.w3.org/2000/svg" p-id="3375" xmlns:xlink="http://www.w3.org/1999/xlink" width="128" height="128"><defs><style type="text/css"></style></defs><path d="M494.944 409.6c-113.12 0-204.8-91.68-204.8-204.8s91.68-204.8 204.8-204.8a204.8 204.8 0 0 1 204.8 204.8 204.8 204.8 0 0 1-204.8 204.8z m0-341.344A136.544 136.544 0 1 0 631.488 204.8a136.544 136.544 0 0 0-136.544-136.544zM119.456 972.8H51.2c0-320.16 199.328-580.256 443.744-580.256a392.736 392.736 0 0 1 306.464 157.376l0.736 1.024-53.248 43.008c-58.176-78.944-149.792-130.336-253.504-133.12h-0.448c-206.848 0-375.456 229.376-375.456 512z m614.4 51.2a238.944 238.944 0 1 1 238.944-238.944A238.944 238.944 0 0 1 733.856 1024z m0-409.6a170.656 170.656 0 1 0 170.656 170.656 170.656 170.656 0 0 0-170.656-170.656z m-102.4 136.544h204.8V819.2h-204.8z m68.288 136.512v-204.8H768v204.8z" p-id="3376" fill="#bfbfbf"></path></svg>