<?xml version="1.0" standalone="no"?><!DOCTYPE svg PUBLIC "-//W3C//DTD SVG 1.1//EN" "http://www.w3.org/Graphics/SVG/1.1/DTD/svg11.dtd"><svg t="1611643024658" class="icon" viewBox="0 0 1024 1024" version="1.1" xmlns="http://www.w3.org/2000/svg" p-id="3781" xmlns:xlink="http://www.w3.org/1999/xlink" width="128" height="128"><defs><style type="text/css"></style></defs><path d="M43.2 103.104c0.128-16.384 9.952-30.432 24.032-36.704l0.256-0.096a39.104 39.104 0 0 1 43.648 8.768l81.024 80.416C280.096 72.544 399.104 23.296 521.92 23.296c263.68 0 478.752 215.04 478.752 478.752 0 263.68-215.04 478.752-478.752 478.752a477.696 477.696 0 0 1-368.416-172.672c-6.24-8.096-6.24-19.968 1.216-26.816l85.408-86.048a23.776 23.776 0 0 1 15.392-5.6h0.224c5.6 0.608 11.232 3.104 14.336 7.488 58.24 75.712 148.896 124.032 250.816 124.032h1.056-0.064c175.84 0 319.2-143.36 319.2-319.168s-143.36-319.168-319.168-319.168a319.136 319.136 0 0 0-217.76 85.536l0.192-0.192 86.016 86.016a38.304 38.304 0 0 1 8.608 43.296l0.096-0.256a40.064 40.064 0 0 1-36.768 24.96H83.008a40.192 40.192 0 0 1-39.904-39.872V103.04z" p-id="3782" fill="#bfbfbf"></path></svg>